/* XPM */
static char *d69d69cef19b429cd87c5de92d0cdfe4579Zzb1qrvDufhik[] = {
/* columns rows colors chars-per-pixel */
"50 50 245 2 ",
"   c #020201",
".  c #0A0906",
"X  c #0D0D0A",
"o  c #130E0A",
"O  c #1A0E0B",
"+  c #14110D",
"@  c #0E1511",
"#  c #151613",
"$  c #1A1612",
"%  c #1C1A15",
"&  c #151A1A",
"*  c #1C1C1C",
"=  c #231D15",
"-  c #231E1B",
";  c #301F15",
":  c #1B211B",
">  c #28231B",
",  c #2B241C",
"<  c #33271C",
"1  c #332A1F",
"2  c #161E26",
"3  c #1A1E23",
"4  c #241E2C",
"5  c #1B2426",
"6  c #1B232C",
"7  c #1B2835",
"8  c #1F313D",
"9  c #2C2621",
"0  c #2E2B22",
"q  c #222629",
"w  c #332C23",
"e  c #3B2D23",
"r  c #342C29",
"t  c #363125",
"y  c #3C3125",
"u  c #34322B",
"i  c #3D342B",
"p  c #242936",
"a  c #273439",
"s  c #393833",
"d  c #472D28",
"f  c #463527",
"g  c #43352A",
"h  c #453A2C",
"j  c #4B3C2D",
"k  c #533C2D",
"l  c #473A35",
"z  c #543C35",
"x  c #603F35",
"c  c #3F413A",
"v  c #55412F",
"b  c #4C4236",
"n  c #44413A",
"m  c #4A4539",
"M  c #534333",
"N  c #5A4433",
"B  c #544539",
"V  c #5B4738",
"C  c #534A3B",
"Z  c #5C4C3C",
"A  c #644735",
"S  c #634935",
"D  c #6B4A34",
"F  c #634C3B",
"G  c #694A3A",
"H  c #724F39",
"J  c #68513D",
"K  c #72523C",
"L  c #1D2D46",
"P  c #2B314E",
"I  c #283948",
"U  c #273A53",
"Y  c #273566",
"T  c #2D3C74",
"R  c #3B454A",
"E  c #294254",
"W  c #374857",
"Q  c #2C4A66",
"!  c #2F506B",
"~  c #335468",
"^  c #304972",
"/  c #345776",
"(  c #3F6A7F",
")  c #564C44",
"_  c #5A5349",
"`  c #495252",
"'  c #654A4A",
"]  c #714C4F",
"[  c #645344",
"{  c #6B5444",
"}  c #6E5947",
"|  c #67584C",
" . c #6C5B4A",
".. c #725443",
"X. c #795845",
"o. c #745C4B",
"O. c #7C5C4B",
"+. c #764D56",
"@. c #675D56",
"#. c #765757",
"$. c #6D614C",
"%. c #79624E",
"&. c #6B635A",
"*. c #6B655B",
"=. c #756352",
"-. c #7C6453",
";. c #796759",
":. c #7B6B5C",
">. c #455E6E",
",. c #4F6874",
"<. c #796E63",
"1. c #7B7263",
"2. c #75716D",
"3. c #815D4B",
"4. c #8A5659",
"5. c #935955",
"6. c #83624C",
"7. c #866754",
"8. c #836A55",
"9. c #836C5B",
"0. c #896E5B",
"q. c #966B59",
"w. c #86735D",
"e. c #8D725D",
"r. c #95725D",
"t. c #855C63",
"y. c #975D65",
"u. c #8A6566",
"i. c #996967",
"p. c #867466",
"a. c #8C7562",
"s. c #8B766A",
"d. c #8C7B6C",
"f. c #937462",
"g. c #947964",
"h. c #9B7B65",
"j. c #9B7866",
"k. c #947D6C",
"l. c #8A6770",
"z. c #986A74",
"x. c #9C6F7A",
"c. c #897B72",
"v. c #987B75",
"b. c #9E707B",
"n. c #A46F69",
"m. c #A77B6B",
"M. c #A36573",
"N. c #A76C70",
"B. c #A76878",
"V. c #A46D7B",
"C. c #A47572",
"Z. c #A1717D",
"A. c #A97578",
"S. c #8D836F",
"D. c #9A8265",
"F. c #94816D",
"G. c #9D826B",
"H. c #8C8479",
"J. c #948374",
"K. c #9C8572",
"L. c #988777",
"P. c #95897B",
"I. c #9C8B7C",
"U. c #A2856C",
"Y. c #AB846E",
"T. c #A4886E",
"R. c #A48672",
"E. c #AC8472",
"W. c #A58B73",
"Q. c #AB8C74",
"!. c #A88578",
"~. c #A38D7B",
"^. c #AB8D7A",
"/. c #B08672",
"(. c #B28D75",
"). c #B38E79",
"_. c #AE9076",
"`. c #A4927C",
"'. c #AC927B",
"]. c #AA957A",
"[. c #B3947C",
"{. c #BA947D",
"}. c #B5987B",
"|. c #2C3F88",
" X c #355885",
".X c #396485",
"XX c #3A6C96",
"oX c #39729A",
"OX c #3B6DA0",
"+X c #3C75A2",
"@X c #3E79A7",
"#X c #466E8E",
"$X c #5A7A85",
"%X c #447598",
"&X c #677782",
"*X c #407CAA",
"=X c #407FB2",
"-X c #AD7885",
";X c #B17585",
":X c #5F8793",
">X c #6C888F",
",X c #5188AC",
"<X c #5693BB",
"1X c #799FAD",
"2X c #6C9AB1",
"3X c #7AA1AF",
"4X c #7AA1B0",
"5X c #7AA8B8",
"6X c #9C8C81",
"7X c #988D86",
"8X c #918E89",
"9X c #9B9288",
"0X c #AA8C83",
"qX c #A49383",
"wX c #AC9583",
"eX c #A89888",
"rX c #AC9B8B",
"tX c #B39682",
"yX c #BB9682",
"uX c #B49A83",
"iX c #BA9B84",
"pX c #B59C8B",
"aX c #BB9D8A",
"sX c #AF9D91",
"dX c #B89F92",
"fX c #B7A189",
"gX c #BDA18C",
"hX c #BDA393",
"jX c #B8A694",
"kX c #BCA699",
"lX c #BDA99A",
"zX c #80A8B8",
"xX c #81AABA",
"cX c #B1B0A7",
"vX c #C19D88",
"bX c #C1A38D",
"nX c #C2A593",
"mX c #C3A996",
"MX c #C7A899",
"NX c #C4AB9A",
"BX c #C5B09E",
"VX c #C4AEA2",
"CX c #C5AFAD",
"ZX c #C7B1A4",
"AX c #C9CCB5",
/* pixels */
"3 & ( ,X<X/ % > - = $ - r r 9 w > - i j b V Z B V V f f h e e e 1 d 1 f f 1 > = y y.B.N.M.B.V.M.M.M.",
"% / ,X<X#X5 q 9 * - 9 i h b h i r b Z ' o.-.9.9.9.a.9.9.:.o.{ Z g 1 1 y f y < = o > 5.M.M.V.-Xz.M.M.",
"I <X<X%X6 4 r 9 - r b _ @.&.&.=.1.s.d.k.K.~.~.W.R.R.K.U.R.U.g.a.8.} V h f y 1 1 - o k M.B.-XZ.B.M.M.",
"* .X,Xa p s u 9 i B &.2.p.c.L.L.~.qXwXwXtXwXwX'.^.Q.R.R.R.R.R.U.U.g.8.} v > 1 1 r ; O ] B.V.-XV.M.M.",
"2 * 4 P P i 9 r m @.c.s.k.L.`.`.eXuXpXpXuXtX[.[.[.'._.Q.Q.R.T.Q.R.U.G.f.%.h < 0 < < : = 4.N.Z.B.x.M.",
"3 * P T R r 9 g | p.s.p.G.`.wX].uXaXgXaXiXiXuXtXtX[.[.[.Q.W.Q.T.T.U.U.G.j.=., > , > , + z B.Z.Z.V.B.",
"$ P  XW l w > ) ;.c.s.F.~.eXeXuXfXgXgXgXaXaXpXiXiXiX}.tX[.Q.Q.W.T.Q.W.T.G.F.Z > = , < > y y.V.b.-Xx.",
"& Y T I R * g @.p.k.F.`.wXuXpXpXgXmXhXhXhXgXaXbXgXaXiXiX}.}._._.Q.W.W.W.W.k.=.h , w w , % +.B.V.z.-X",
"& 3 p W c # ) :.S.F.~.rXfXjXjXhXmXmXmXmXmXmXnXnXbXbXiXgX{.}.}.}.[.Q.W.W.W.G.9.Z y y , - * z -XV.B.-X",
"E o W %Xc s *.1.I.I.].fXjXhXhXgXmXNXmXmXnXmXnXnXbXbXbXgXbXiXiX}.[.'._.W.W.K.a.[ i w , % * 0 y.V.B.x.",
"( + #X,Xu ` 1.S.qX`.eXjXhXlXNXhXmXNXMXmXmXmXnXnXnXbXbXbXgXiXiXiX[.'.'.W.W.G.g.| g 0 > # o % 4.V.B.z.",
"7 o W #Xq *.S.S.rX`.eXgXhXmXlXNXNXNXNXmXmXnXnXbXbXmXnXbXbXgXiX}.}.'._.Q.W.K.d.=.h w - + X o 4.V.-XM.",
"# & : I s <.P.P.rX`.rXgXlXhXhXNXmXNXMXmXmXmXhXbXbXmXbXgXgXfXiX}.[._.].`.W.W.s.=.j t > + X . t.-Xz.;X",
"& & 4 Y s 2.9XI.wXqXsXNXlXmXhXNXNXmXmXmXmXNXnXbXmXhXnXuX}.iXuX}.[.Q.R.Q.Q.W.F.=.g 9 * X .   ] -X-Xz.",
"7 # U T s *.8XeX`.`.rXlXlXkXmXNXBXNXBXmXhXhXgXhXuXK.~.].}.[.Q.[._.W.W.W.].W.P.-.t $ + . .   ' -Xz.;X",
"L & Y |.s @.9X9XqX`.jXcXVXjXkXNXBXBXNXMXhXwXk.u.F e g j [ } o.a.'.R.R.W.W.Q.W.f.h $ X . .   ' -X-Xz.",
"L & L P u ) 9X9X6Xd.:.&.1.c.qXjXVXVXBXNXjXK.@.' f j C b y g h j %.g.D.U.Q.R.W.I.C % . . .   ' -Xx.x.",
"2 & $ I a s 8X*.m u 9 < 9 B s.rXNXZXZXNXpXK.:.-.8.s.:.;.;.$.[ F k Z 9.U.W.R.T.K._ = X .     +.-X-X-X",
"& # q %XE , @.0 u 0 i _ | | 1.qXlXVXNXNXgXwXK.R.`.eXfXlXjXeXk.p.=.[ =.D.T.T.K.D.C + X . .   ' -Xx.-X",
"6 o / <X~ = s m | <.L.rXrXP.c.P.sXlXNXNXgXtXW.W.W.G.K.F.G._.~.~.L.p.g.D.T.T.T.a.b % o . X . +.;X-Xx.",
"~ @ #X<X/ : n *.H.rXlXjX'.R.k.d.P.jXBXBXbX[.R.v.f.7.p.l l s F 8.D.].].W.D.U.T.g.M $ o o o A u.Z.x.-X",
",X& I ~ 4 & _ 8X9XqXS.:._ =.-.=.H.sXmXmXaX'.^.Q.q.s.cX,.R ` _ k r._.}.].U.U.T.f.B , O O k q.i.x.-Xz.",
".XI + + 7 2 *.7Xc.| _ ` s ` &.| S.qXhXbX}.[.).).j.i.k.<.:.s.Q.h.r.(.}._.T.U.U.r.Z < = z i.{.m.A.-X-X",
"5 a % 6 T 6 1.eX%.l 2.2.` *.u.{ c.qXuXiX{._._.Q.j.r.m.v.R.^.[.[.}.}.}.Q.T.T.U.h.{ < , X.E./.m.A.l.z.",
"a 8 @ L  X2 *.qXa.c.I.v.J.E.i.p.P.I.iXiX(.}.(.[.(.!.R.^.^.).tXtXyX{.}.Q.T.U.U.h.o.f M r.bX/.Y.C.-Xl.",
"~ E 8 6 Y 2 @.qXI.6X0XwX0X~.~.J.P.`.iXiX(.(.(.(.tXiXuXtX).tX).yX{.{.[.[.T.D.U.U.%.k O.j.iXbXm.C.-X-X",
">XI .X2 7 2 @.9XrXeXtX0XuXwXrXI.P.`.iX{.(.(.(.(.{.iXiXyX{.{.vX{.vXvX{.[.Q.U.U.D.o.v e.Y.).{./.C.l.-X",
"xX` / ^ $ & @.sX0XpXtXtXpXdXpXP.L.wXiX(./.(.).Q.{.iXyXyXvX{.vXvX{.{.[._.Q.U.r.g...v U.[.)./.(.C.-Xz.",
"5X,.L +XU + @.eXsXpXpXdXnXdXqXI.6XhXvXyX/.Y.Y./.tXyXyXyXvXvXvXnXvX{.).(._.T.h.e.S V }.aXY.m./.C.l.-X",
"5X3X7 .XOX7 _ eXsXdXdXnXnXpX9XP.qXmXMXaX).E.Y.Y./.yXyXyX{.vXnXMXMXaX{.Q._.T.g.0.{ { fX(.U.E.Y.C.-Xz.",
"4XxXW E @X/ R qXsXdXdXnXdX0X8X7XeXMXMXnXyXQ.)././.).yXyXvXvXMXMXMXvX[.Q.Q.Y.g.8.J %.iXq.(.^.!.l.-Xl.",
"4X5X,.6 @XOXW I.sXnXVXVXdX0X-X6XsXCXVXCXpXQ.E./.A.).yXaXyXvXMXMXNXaX(.Q._.T.h.w.F 8.iX[.pXtXv.-Xz.-X",
"4X4X:X: .X@X.Xc.sXkXVXnXpX6X6XP.I.ZXjXaXR.f.q.q.C.iXkXiX'.'.pXbXnXiX).^.R.G.D.9.[ e.{.}.vX'.v.Z.x.x.",
"4X4X3X5 Q @XXX8XrXjXVXnX0X6X9Xc.#.9.k.v.f.X...3.q.j.!.R.U.U.W.uXdXiX'.Q.].T.D.-.Z f.}.(.(.(.v.Z.-Xb.",
"4X3XzXa P @X+X&XqXsXhXuX6Xv.l.@.j f } -.#.F ..X...3.X.X.X.O.8.K.wXaX[.W.].G.g.%.N 7.{.}.{./.x.Z.b.b.",
"3X3X5X` 7 *X%X&X7XrXrXk.9.o.F Z z k A J M S H A D G x K H D D 6.a.].tXW.].T.e.X.F z f m.!.v.b.b.b.b.",
"3X4XxX,.7 *X+X,.P.eX].{ S N N k k k A A N A K D G H X.O.K K S F J R.].f.D.F.8.} [ -.% +.x.b.x.b.b.b.",
"3X3XxX,.5 +X@X>.H.rXw.v V Z J F { { O...K X.6.O.3.3.6.%.%.v o.V k g.T.e.6.r.8.J z Q.9 +.-Xx.x.b.b.x.",
"3X3X5X,.@ E E l H.eX:.v Z [ | [ ] p.c.v.k.K.eX`.wXG.D.D.o.f.]...Z `.G.0.r.e.%.F N Q.r #.Z.b.b.b.b.b.",
"3X3X5X:XX + + * *.H.s.} M ;.s.d g S.cXAXAXAXAXZXkXg.4.5.m.[.Q.=.J wXK.w.w.6.{ v k Q.g t.Z.b.b.x.b.x.",
"3X3XzX,.X 3 @ . l <.d.L. .:.rX6Xu.4.5.i.m.Y.E.n.5.5.i.U.Q.T.r.} [ e.w.-.%.$.S 1 F Q.z t.Z.Z.b.x.x.x.",
"3X3XxX>.7 oXE @ ' =.:.~.:.| d.P.I.v.v.C.m.N.C.A.N.tXQ.T.G.r.7.K C -.8.%.%.Z v < 8.'.B +.V.b.b.x.x.x.",
"3X3XzX` ! *X+X2 l u.) 1.:.J =.d.J.L.6XwX0X~.~.!.m.j.r.r.q.%.J J F =.$. .Z v f y D.]. .t.Z.b.b.x.x.x.",
"3X3X1Xa .X*XXX& # +.' | _ b [ 1.a.w.8.%.-.O.O.o.X.3.q.6.%.K G S J $.J Z v y 1 $.tXK.$.t.b.b.x.x.x.x.",
"3X5X,.q XX*X/ $ & r #.l C ) _ $.:.:.K F F F A G D O.7.6.D S S N F J $.[ y w b D.].G.:.+.z.b.x.x.x.x.",
"3XzX` a @X@XU + & @ s B n m C Z | =. .Z k f d z A O.O.K J S N j Z J $.m % y 8.}.}.W.e.+.z.x.b.x.x.z.",
"3X1X: Q =XXX3 3 2 + # #.C c m C C [ o.) e j z G ..X.X.S F S N v M Z $.t 1 1.K.wX].I.a.t.z.x.x.x.x.x.",
"4X$X& .X@X! 3 %X#X3 @ u.i.s m m B Z { [ ' o.o.O.O.O...k S V M M b b m 1 $.G.`.}.}.W.g.#.z.b.b.V.x.z.",
"3XR 7 +X+X7 W 5X2XE . u.0X#.t m Z Z  .:.k.-.o.9.-.#.o.[ J Z M g b b y Z D.`.].].}.`.D.:.z.x.x.x.x.x.",
":X& ~ @X! @ .X5X2XE X l.;X;X' l C Z [ 9.8.o.#.:.-.o.O.o.F V j i y y Z S.`.].].}.].].D.9.u.x.x.V.x.x."
};
