/* XPM */
static char *_2729764a6a6425ccf71b58192fb4593FDQyQkvwj4n3e2GM[] = {
/* columns rows colors chars-per-pixel */
"50 50 233 2 ",
"   c #020101",
".  c #0C0403",
"X  c #0F0907",
"o  c #130605",
"O  c #1A0607",
"+  c #150806",
"@  c #1B0907",
"#  c #150A09",
"$  c #1C0C0A",
"%  c #1F110E",
"&  c #1A0F13",
"*  c #1C1113",
"=  c #13131C",
"-  c #1C151B",
";  c #200503",
":  c #230B07",
">  c #230E0B",
",  c #2A0E0B",
"<  c #320F0B",
"1  c #25110D",
"2  c #2B120E",
"3  c #33120E",
"4  c #3B140F",
"5  c #220F13",
"6  c #251312",
"7  c #2B1512",
"8  c #2D1915",
"9  c #271818",
"0  c #2A1A1D",
"q  c #331511",
"w  c #3A1612",
"e  c #341914",
"r  c #3B1A15",
"t  c #351C1A",
"y  c #3C1C19",
"u  c #3C2016",
"i  c #3C211D",
"p  c #0D1324",
"a  c #0E162B",
"s  c #121523",
"d  c #141727",
"f  c #141A24",
"g  c #131C2C",
"h  c #1B1D2B",
"j  c #131D34",
"k  c #161E37",
"l  c #251D24",
"z  c #1C212C",
"x  c #162132",
"c  c #1A2536",
"v  c #15213D",
"b  c #1A2639",
"n  c #1D2A3D",
"m  c #23212B",
"M  c #2A2428",
"N  c #382626",
"B  c #232634",
"V  c #2A2A36",
"C  c #232A3C",
"Z  c #332831",
"A  c #411A15",
"S  c #451915",
"D  c #4C1814",
"F  c #4C1B15",
"G  c #441E1A",
"H  c #44221C",
"J  c #4B221C",
"K  c #46291F",
"L  c #55261E",
"P  c #67231B",
"I  c #442522",
"U  c #4B2622",
"Y  c #452C27",
"T  c #4B2B25",
"R  c #4C2D2A",
"E  c #542B24",
"W  c #582A24",
"Q  c #532D2A",
"!  c #49362B",
"~  c #53312D",
"^  c #5A3229",
"/  c #4C3B39",
"(  c #583732",
")  c #662B23",
"_  c #7D2F27",
"`  c #683529",
"'  c #6C3A2C",
"]  c #79372A",
"[  c #663A33",
"{  c #7A3D32",
"}  c #5F423A",
"|  c #674437",
" . c #774737",
".. c #7B4235",
"X. c #7A4B3B",
"o. c #74513D",
"O. c #172442",
"+. c #192643",
"@. c #1D2C43",
"#. c #1F3148",
"$. c #252E46",
"%. c #233144",
"&. c #23344D",
"*. c #243552",
"=. c #253853",
"-. c #27375A",
";. c #554C4B",
":. c #6F4D45",
">. c #72524E",
",. c #85463A",
"<. c #834D3B",
"1. c #88513E",
"2. c #A4433D",
"3. c #894B45",
"4. c #8A5444",
"5. c #875945",
"6. c #8D5C4A",
"7. c #925545",
"8. c #925945",
"9. c #925D4A",
"0. c #9C5B4B",
"q. c #915D51",
"w. c #B14E4E",
"e. c #AA524B",
"r. c #A25F51",
"t. c #B65654",
"y. c #8B604D",
"u. c #976348",
"i. c #94624D",
"p. c #9B624C",
"a. c #8A6359",
"s. c #9B6553",
"d. c #986956",
"f. c #A1624E",
"g. c #A36553",
"h. c #A36B55",
"j. c #A96957",
"k. c #A46C59",
"l. c #AB6D5B",
"z. c #B5665C",
"x. c #A5725C",
"c. c #A9765A",
"v. c #AB735D",
"b. c #B2745B",
"n. c #B95C61",
"m. c #966B61",
"M. c #94736A",
"N. c #B66D69",
"B. c #A47766",
"V. c #AB7562",
"C. c #AC7964",
"Z. c #AB7C6B",
"A. c #B67664",
"S. c #B37A64",
"D. c #B47D6A",
"F. c #BB7D6B",
"G. c #A97B71",
"H. c #C26058",
"J. c #C76A6A",
"K. c #C4786A",
"L. c #C97B75",
"P. c #D07677",
"I. c #AE816F",
"U. c #B58066",
"Y. c #B6826D",
"T. c #BB836E",
"R. c #B48373",
"E. c #BC8473",
"W. c #BD8A74",
"Q. c #B98678",
"!. c #BC8B7B",
"~. c #C3826E",
"^. c #C0896F",
"/. c #C38574",
"(. c #CB8573",
"). c #C38B75",
"_. c #CA8976",
"`. c #C7837B",
"'. c #C48D7A",
"]. c #CA8C7B",
"[. c #D38C7B",
"{. c #C5927D",
"}. c #CB927D",
"|. c #D2937E",
" X c #99918E",
".X c #BD9288",
"XX c #AD9C9B",
"oX c #C78882",
"OX c #C59482",
"+X c #CD9482",
"@X c #CD9A84",
"#X c #C59A88",
"$X c #CD9C8C",
"%X c #D39584",
"&X c #D99786",
"*X c #D39A85",
"=X c #D49C8B",
"-X c #DA9D8C",
";X c #C79F94",
":X c #D49E90",
">X c #DA9F91",
",X c #CFA289",
"<X c #D3A184",
"1X c #D5A18C",
"2X c #DAA28D",
"3X c #CAA696",
"4X c #D5A492",
"5X c #DCA493",
"6X c #DCAA94",
"7X c #DAA599",
"8X c #DEAA9B",
"9X c #DBB29E",
"0X c #E0A28C",
"qX c #E2A595",
"wX c #E3AA96",
"eX c #E4A699",
"rX c #E2AB9C",
"tX c #E8AB9C",
"yX c #E3B19C",
"uX c #D7B2AB",
"iX c #E5AFA1",
"pX c #E9AEA1",
"aX c #E5B2A3",
"sX c #E9B3A5",
"dX c #E4B0A8",
"fX c #EAB5AB",
"gX c #EBB9AD",
"hX c #F0B9AE",
"jX c #ECBCB2",
"kX c #F2BDB5",
"lX c #D9C2B4",
"zX c #F3C5BD",
"xX c #E5D5C9",
/* pixels */
"f f z z = = = = = - 9 i u 8 u e u e 1 # + $ % @ o X $ 1 7 9 % X # # X o X # # & s j k O.v v v j a a ",
"f f = = = = = = f 9 u 8 8 8 8 u 1 1 $ # @ % + # # # $ > 7 6 % + + # # # # o $ # s k +.+.+.+.v j j a ",
"f f = f z z z z l 8 2 1 2 2 8 1 1 $ # # $ + @ $ $ $ $ > e w 7 % # # + # X o # $ - h +.+.+.+.O.O.j a ",
"f f x b n #.n %.i 2 1 : 1 8 7 1 1 $ + % $ : > : $ > 3 H W ^ K e 5 @ $ + o o + % 5 s h j k k k O.v k ",
"g x b #.#.=.=.Z 2 : : : 7 7 > 1 1 % % $ : 1 : @ : 4 L ] ..<. .` H 2 7 > @ # # $ : $ - p p a j j v j ",
"x x n #.#.#.B 7 , > , 2 2 1 1 7 8 1 : 2 2 : , , A P ..1.8.u.f.1.' G q q > @ # $ > $ 5 = p p p s a a ",
"x b x b b m 8 : : > : 2 1 1 1 7 1 1 2 2 2 3 q J ` <.u.j.j.b.h.f.8.' G w e $ $ $ $ $ % = p p p p p f ",
"x x x z z 9 1 1 , : 2 > > > 1 1 1 2 2 2 3 q J ' 1.j.U.~.~.U.b.c.h.5.) G I 8 $ $ $ > @ $ - s d h c b ",
"g f f g m 1 : , , , , : > 1 2 2 , 7 3 q w L { 7.b.).}.}.'./.U.S.c.h.5.U E i 1 $ $ 1 $ $ - b @.&.&.=.",
"f g g x l 1 , , < 3 , 1 1 3 3 2 , 3 w y G { p.F.}.*X=X=X*X}.).T.U.v.s.<.[ J q > $ $ 1 $ 9 $.-.-.*.&.",
"x x b B 9 > < , 3 3 2 > 2 3 3 , 2 w G D ..j.].=X2X1X>X>X=X$X}.'.E.D.S.s...Q r 7 % $ > $ * c #.O.b v ",
"b n n B 1 2 , 3 4 2 , 2 4 r 3 3 < A F { j.$X5X>X5X5X=X1X=X=X@X}.'.E.U.c.4.[ H y 1 1 > $ $ - h j a a ",
"n n n M 1 3 3 q 3 , 1 3 A 3 3 3 S D { g.$X8X5X5X5X5X-X=X-X*X@X+X{.W.T.U.s.X.E H 7 1 1 > @ $ = a a j ",
"#.n C l 3 e A w 3 , 3 q r 3 3 S D ) r.oX8XwX8X5X5X5X2X=X*X*X@X@X}.'./.Y.v.4.[ H y 2 2 > > $ * k v @.",
"n n V 8 q q H w 3 2 2 w 4 3 S D ) 7.(.8X8XrX8X5X6X5X2X-X=X*X%X+X{.).W.U.v.i.` K y w 2 1 > $ % C *.=.",
"n n V e e u K 4 3 3 3 A 4 A S D ,./.8XrX8XeXrXrX8XrX5X5X2X-X*X@X{.'./.U.V.p...L J y 2 2 > @ > B -.*.",
"B $.Z q y I I w y q G A S D S ] N.sXpXiXaXrXrXrXiXrXrXrX8X8X8X4X}.U.B.V.c.s. .L G H y 2 1 : @ l C b ",
"n C N y y U I I y q I A J G P g.aXzXjXjXgXgXfXiXaXsXaXrX:X.XG.B.y.y.6.4.9.s.1.E A L H 3 2 1 : 1 m b ",
"$.V t G I R R I q t U J J L  .$XjX8XdXjXjXjXgXaXiXaX9X#Xd.5.X.X.m.R.Q.I.d.6.4.^ 7 J K r 3 2 : % l *.",
"*.V G R I R R I 7 I T U E L L a.a.i.B.=XsXgXfXaXaX8X7XOXZ.B.Z.!.4X3X3X,X=XG.6.' , H J e e e 1 : l -.",
"*.Z J ~ I R R R 6 R ~ U ^ ` | a.M.R.!.$X8XsXfXsXaXrX=X'.R.!.$X.XB.d.d.c.T.Y.u. .y e H q r r 2 : 9 C ",
"$.N T ~ Y R R N > T ~ [  .1.Y.#X'.OX#X$X1X8XfXgXaX=XE.E.!.D.m.( 8 7 6 K o.u.1.<.L 1 r q 3 J 3 > 2 l ",
"B N R T R R ~ t 6 I R [ | ` y.y.a.B.R.!.OX=XiXsX5X'.l.R.F.d. X/ 9 ! ;.% 8  .u.6..., w q q H r 1 2 0 ",
"f N ( ~ R Y ~ 8 7 y I ~ K e ! 9 t a.B.Q.#XOX=X4X@XF.r.3XS. XlX>.i } >.K  .h.U.h. .3 4 4 3 u H 2 , 0 ",
"N T ( ( I y N 7 7 q y i $ N Z t N XX.XF.3XOX].].E.l.k.G.!.Q.Q.m.5.5.y.q.U.T.T.U.1.H q 4 2 e J 2 5 8 ",
"} R ( ! t 8 t 1 > 7 r q . / M.( o.G.Z..XOX!.E./.A.j.g.g.G.'.'.'.{.W.R.Q.W.W.W.T.p.^ $ w 2 2 i 8 > t ",
"! ! ^ i 6 7 7 6 > q w Q G [ a.m.B.F.F.Q.!.`././.A.g.g.s.l.Y.E.].OX'._.(.).).'.R.c. .O q 2 2 e 8 $ 8 ",
"I ! ~ e > > > > $ q D { 6.R.!.+X;XoXQ.'.F.E.E./.F.j.0.r.j.F.L./.~.~.K.(.).].{.W.c.<.: q 2 > 2 2 $ 7 ",
"Y R I 7 @ $ $ @ : 3 ` r.D._._.+XoX_._.E.E././._./.V.g.g.g.A._.(.(.(.(.(._.)./.E.C.7.6 2 3 $ 1 2 > > ",
"T Q I > # # @ o ; D 0.%X%X+X+X[.+X%X].].+X`./.+X%X/.h.p.v.L.|.[.[.[.[.(._.).).Y.V.u.1 > 2 $ $ 2 $ 5 ",
"T ~ I @ o # o o O ,.+X>X7XqX>X-X-X&X%X:X=X].@XfXaX].l.g.h.F.tXqX2X&X&X|.].].T.A.v.u.6 $ 8 > > , > > ",
"K ~ y @ o o # . w F.>X>X>XeXeXtXtXeX-X+X+X+X@X9XrXE.7.l.V.j.rXfXtXqXwXqX=X[.~.S.l.8.* @ q > > 7 > $ ",
"J Q y @ . o o . [ *X:X>XqXpXfXgXsXtX0XK.|._.1.%X%Xb.] 7.A.b.*XtXtXeXtXpX=X%X/.S.l.7.$ @ q 1 > 1 > > ",
"U Q i # X . #   :.=X:X>XqXdXkXkXpXtX0X|.=X(.N.+X).b.b.l.~.|.2X2XqXwXeXwX-X%X~.S.h.7.$ + 2 7 > 7 2 $ ",
"U Q U $ . . o   :.=X$X>XqXpXkXkXtX0X-XwXwX-X&X=X=X+X+X/./.].|.%X&X&X0X5X=X}.T.b.h.u.$ @ > 2 1 q 2 : ",
"G ^ Q 7 X . o   ( $X=X5XqXtXfXpX0X&X0XwX>X>X>X8XdXrX7X|.)./.).}.|.|.*X&X*X}.).S.k.u.6 + > 1 7 i w > ",
"A Q [ 8 o . +   6 {.#X>X>XeXpXeX0X|.wX5X>X>X>XiX8X5X&X_.).T.L.W.}.<X}.*X<X}.).C.c.s.7 o 1 1 e U e > ",
"4 U Q t @ O + .   G.#X*X>X7XeX>X|.2XwX2X:X:X%XoXL.L.J.H.e.e.j.V.Y.<X<X<X2X*X'.U.c.u.1 o @ 1 r J 3 , ",
"S U Q y 6 5 $ +   6.=X$X=X5X5X-X|.9X7X>XoXN.w.t.t.t.z.b.S.j.3.) ..).6XyX6X@X{.Y.c.i.o o @ > r G 2 : ",
"4 J U U q 7 7 >   } =X#X5X6XwX<X6X1XV.7.,.N.3XxXxXuXxXlX9XQ.4.] h.<X6XyXwX<X'.U.c.5.. + + @ e w : 2 ",
"w G G I e 8 7 q # i OX#X4X6XrXyXyX@Xp.] w.l.N.oXoXoXL.t.w.2.2.j.^.|.9XyX9X,X!.U.b.|   o + : 3 3 : 3 ",
"4 G A A y 7 6 t 7 > Z.%X=X7XyXyXyX2X|.T.N.t.N.P.P.J.J.J.t.l.F.T.^.}.9XyX6X}.!.U.c.i   + + > 3 3 > 3 ",
"< G A G y 7 5 8 7 . :.$X:X4X8XyXyX6X1X@X+X`.L.P.P.J.H.J._.'.).T.W.^.6X9X<X{.R.C.5.. . + + > 4 3 2 2 ",
"< S r y w t $ 6 5 o 8 .X;X4X6XyXyX6X1X*X=X4X=X=X&X&X=X2X$X+X)./.^.^.<X6X,XW.U.h.N   . $ @ , 4 3 3 3 ",
"< A 3 A y e 7 O $ # . >.=X$X4X8X9X6X*X=X*X4X8XrXrXrX7X5X1X*X}.).}.}.}.{.W.D.x.(     o $ > < w 3 3 q ",
"< w < r y q q 5 # o . $ G.,X,X4X9X6X1X<X=X5XrXrXeX8XqX>X-X*X}.}.{./.{.U.C.s.| . . . o > , 3 w < 3 r ",
"< w , q y q 2 > o o o   i !.$X$X1X6X1X1X5X5X8X5XeXeXqX-X&X|.}.}.{.U.U.c.i.5.Q     . : 2 < 3 w < 3 r ",
"< 4 , 7 w q , : o o o X   ! Q.@X@X1X1X1X5X1X>XeXeXeXrXeX5X*X+X'.T.U.u.5.4.8.T     o 7 w q 4 w 3 3 y ",
"< < : : w < 5 , O O o X X   I C.!.OX@X,X4X7X8XaXsXaXiXiXrX>X+XE.c.u.5.5.u.d.K   X X e r e 4 4 3 3 A ",
"< < : O 5 w < , O O # O . X . q.B.R.!.@X=X4XrXaXaXrXiX8X7XOXD.d.5.5.y.d.h.h.u X X % H r r 3 A 3 3 A "
};
