/* XPM */
static char *_c85251cd7f04585c7648cef8a16702dR3pLT8KKuwE71q06[] = {
/* columns rows colors chars-per-pixel */
"50 50 245 2 ",
"   c #040303",
".  c #0A0604",
"X  c #0C0906",
"o  c #060A08",
"O  c #0D0B0A",
"+  c #120E0B",
"@  c #160D09",
"#  c #0B1308",
"$  c #14110E",
"%  c #1B120E",
"&  c #0C0D10",
"*  c #151312",
"=  c #1A1513",
"-  c #1D1915",
";  c #17181B",
":  c #1D1B1A",
">  c #22150F",
",  c #2C0E10",
"<  c #281613",
"1  c #221A15",
"2  c #231D1A",
"3  c #2B1E1B",
"4  c #361B17",
"5  c #331C1C",
"6  c #17231E",
"7  c #25201D",
"8  c #2B231D",
"9  c #35231C",
"0  c #3B251D",
"q  c #1B1B27",
"w  c #1C1F35",
"e  c #211F31",
"r  c #1D2228",
"t  c #1E2536",
"y  c #282626",
"u  c #2D2925",
"i  c #332924",
"p  c #392824",
"a  c #3C332B",
"s  c #222637",
"d  c #352E32",
"f  c #27333E",
"g  c #3A3433",
"h  c #451B1D",
"j  c #5D191B",
"k  c #6D1A1E",
"l  c #751A1E",
"z  c #781A1F",
"x  c #43281C",
"c  c #441F21",
"v  c #691F22",
"b  c #771D21",
"n  c #472A24",
"m  c #572829",
"M  c #49352B",
"N  c #57362A",
"B  c #5D2B30",
"V  c #453B36",
"C  c #553B38",
"Z  c #6A2F2F",
"A  c #672D31",
"S  c #6A3537",
"D  c #773439",
"F  c #4E423A",
"G  c #5B4335",
"H  c #684836",
"J  c #764A36",
"K  c #6D523F",
"L  c #76523C",
"P  c #7D533D",
"I  c #1F1F40",
"U  c #1F254D",
"Y  c #222647",
"T  c #2B3C4B",
"R  c #222953",
"E  c #23275A",
"W  c #252C5C",
"Q  c #242D64",
"!  c #292F65",
"~  c #273062",
"^  c #293162",
"/  c #5E3D41",
"(  c #753D41",
")  c #2E4357",
"_  c #334A66",
"`  c #39556F",
"'  c #385976",
"]  c #3B607E",
"[  c #584B47",
"{  c #59524C",
"}  c #664C44",
"|  c #774846",
" . c #665248",
".. c #795746",
"X. c #685B56",
"o. c #765B56",
"O. c #6E625C",
"+. c #7A6458",
"@. c #405F7C",
"#. c #786964",
"$. c #7C7068",
"%. c #842C36",
"&. c #892F36",
"*. c #85333C",
"=. c #89343E",
"-. c #87563D",
";. c #97573B",
":. c #A2603F",
">. c #8B3642",
",. c #853942",
"<. c #8A3A45",
"1. c #8C3944",
"2. c #953E47",
"3. c #A43F49",
"4. c #8A454B",
"5. c #92434C",
"6. c #9C444B",
"7. c #865B46",
"8. c #995C45",
"9. c #8D4B52",
"0. c #944B54",
"q. c #994F59",
"w. c #805D54",
"e. c #955156",
"r. c #96535A",
"t. c #9B5759",
"y. c #99545B",
"u. c #A9444D",
"i. c #A6564A",
"p. c #A74652",
"a. c #AA4A53",
"s. c #B34B53",
"d. c #B54F59",
"f. c #A8575B",
"g. c #B2555C",
"h. c #886248",
"j. c #8C644C",
"k. c #98674C",
"l. c #886757",
"z. c #9B6C52",
"x. c #976B58",
"c. c #9C7357",
"v. c #A76B4F",
"b. c #A56A54",
"n. c #A37154",
"m. c #AA7455",
"M. c #A7775B",
"N. c #AC7B5C",
"B. c #B67B58",
"V. c #B27C5C",
"C. c #915F62",
"Z. c #B05B62",
"A. c #846D64",
"S. c #946A64",
"D. c #84726B",
"F. c #8B7569",
"G. c #8C746B",
"H. c #967668",
"J. c #9B7B6C",
"K. c #877974",
"L. c #8B7C76",
"P. c #947C73",
"I. c #987B75",
"U. c #AB6467",
"Y. c #AE6569",
"T. c #B16669",
"R. c #B1666A",
"E. c #A47C67",
"W. c #AC7D62",
"Q. c #B77B67",
"!. c #AE7771",
"~. c #AA815F",
"^. c #B7815E",
"/. c #8F807A",
"(. c #9B8275",
"). c #988377",
"_. c #94827A",
"`. c #9D897C",
"'. c #AD8263",
"]. c #A8836D",
"[. c #B48364",
"{. c #BB8564",
"}. c #B88967",
"|. c #B3856B",
" X c #BB8B6B",
".X c #BC916E",
"XX c #A68675",
"oX c #A48C7C",
"OX c #AD8C7C",
"+X c #B88A76",
"@X c #AC907E",
"#X c #BB927A",
"$X c #C48866",
"%X c #C28D6C",
"&X c #C3926D",
"*X c #CC916E",
"=X c #D39A6F",
"-X c #C28E73",
";X c #C49473",
":X c #C99674",
">X c #C69975",
",X c #C89778",
"<X c #C6987B",
"1X c #CC9B7B",
"2X c #D29A79",
"3X c #E0A17D",
"4X c #3F6886",
"5X c #456A8B",
"6X c #49779D",
"7X c #4F7BA3",
"8X c #9A8680",
"9X c #A38C83",
"0X c #A98C81",
"qX c #B08F81",
"wX c #AA9285",
"eX c #AD948B",
"rX c #B49282",
"tX c #BB9584",
"yX c #B99A8C",
"uX c #B49991",
"iX c #BC9D94",
"pX c #BCA098",
"aX c #C69A83",
"sX c #C29B8C",
"dX c #D29F82",
"fX c #C89F92",
"gX c #CDA38A",
"hX c #D3A184",
"jX c #D4A58B",
"kX c #D8A68B",
"lX c #D8A88C",
"zX c #C5A194",
"xX c #CCA595",
"cX c #CAA69A",
"vX c #D3A996",
"bX c #D4A994",
"nX c #D9AC93",
"mX c #D4AB9B",
"MX c #DBB39D",
"NX c #E2AB89",
"BX c #CEADA3",
"VX c #D3B2A6",
"CX c #DBB4A2",
"ZX c #E1BBA5",
"AX c #E2C2AB",
/* pixels */
"u.3.3.2.=.m % % 7 ; $ = = - 2 - - = # $ - 6 i a 8 = % O X .   # - $ X $ 4 j z z z z l z b b %.b b b ",
"p.p.p.4.Z = $ $ : : 7 - $ - - - = = - $ + $ y i 9 2 - # X .   @ 1 $ X $ @ , h k l l z b %.&.%.%.%.b ",
"a.p.u.,.p 1 = = 7 u i 3 = - = $ $ O $ $ $ % - 2 8 7 > % O X X % = X X = % % 4 j z b %.&.=.=.=.=.%.%.",
"a.a.2.n q y 2 * : u u u 2 $ $ $ $ @ $ = = 7 8 7 7 7 % @ @ X @ % $ @ @ * - 1 > 4 v %.=.=.>.>.=.=.*.%.",
"a.s.D : 3 u y * : u 7 2 3 - : 1 $ * - = = 8 p 9 x 0 < @ $ @ % % @ $ O @ $ * % 3 m &.=.>.>.>.>.=.>.%.",
"a.u.B $ : y y y u y u 8 7 8 u 1 % $ % 2 7 8 0 N J J N x x 3 % % $ @ X X @ @ @ 1 5 n D >.>.>.>.>.>.=.",
"a.*.m & * - = y y u i u i i 9 3 3 3 3 9 0 0 M H -.v.J N J J 9 > @ X X X O $ 1 2 3 - B >.1.>.>.>.>.*.",
"u.B p - : * = 2 8 u g V V M a M C M p 8 M N -.z.m.m.v.P x 0 M x > X X X $ - - - < < 4 =.>.>.>.>.>.>.",
"3.D 5 * O $ * 1 u V { o.} | ..h...} C N 7.M. X%X&X{.V.m.7.J P J x % X o X # $ % 1 1 4 =.2.>.>.>.>.>.",
"A Z = & * ; * = a  .#.l.H.J.J.J.J.E.E.;XjXnXjXjXhX:X%X{.V.v.k.k.H 0 @ X X O O % 1 1 n *.>.>.>.2.>.>.",
"2 5 $ $ & 2 = % [ A.I.XXOXOX@XaXfXdXlXbXbXlXbXnXlXhX1X&X{.B.v.v.L x @ # % X X $ 2 1 5 D >.1.>.>.>.>.",
"= 2 * & + & = i X.P.0XrXyXsXzXxXvXmXbXbXbXbXlXbXlXhXhX1X&X&X^.N.h.N > o X X X $ < y p D 1.>.>.>.>.>.",
"1 : * & $ & . V A.I.eXyXzXxXxXvXvXvXvXbXbXjXjXdXhXhXhX1X1X>X&X{.m.h.N O .   . + 1 3 5 D 1.1.>.>.>.>.",
"* 1 2 2 = + . [ G.`.eXiXzXxXcXxXvXvXvXvXvXjXjXbXlXjXgXhX2X1X:X{.B.m.n.x   X O $ = 1 p D >.>.1.1.>.,.",
"; 1 : = @ O O o.I.8XeXiXzXcXcXxXxXbXbXvXnXnXMXMXMXnXlXhX1XhX:X{.^.m.B.-.@ + @ $ = - > m >.>.1.1.>.,.",
": : ; $ * = & X.I.9XeXuXiXzXxXxXxXbXvXmXMXMXAXAXMXZXxX|.c.7.k.n.N.N.n.7.8 % X + = = O 3 D 1.1.1.>.,.",
": : ; * * : & X.8X9XeXuXiXcXBXBXmXvXmXCXCXZXZXAXMXOX......w.P J 7.b.m.7.0 > X X @ $ % 5 B =.2.>.,.,.",
"; * : - * & O { L.9XeXuXiXcXBXVXVXMXCXCXCXZXCXaX7.S c.sXgXaX XW.n.m.m.7.> X . . O @ % 5 c D >.,.,.,.",
"q & - * * O & V K.9XeXeXiXVXVXVXBXVXVXCXCXCXaXn.z.^.1XjX,X[.W.{.[.W.N.m.n   . @ O @ > < % 4 ( <.,.,.",
"q * & + * O # d A.eX9XG.K.#.P.I.rXzXmXvXMXnX,X{.m.z.x.L L J -.N.}.}.[.B.-.@ X @ = O $ < c A 1.<.<.,.",
"_ f + O * = + - #./.[ /  .[ H  .S.0XzXxXbXjX%XV.;.w.#.V } } N v. X;X X[.v.x . X x N O 5 D =.<.<.<.<.",
"' s & X O - * = X.[ / /.pXxXtXW.x.S.XXiXjX1X$Xm.k.8.J.l.c.E.m.{.>X:X.X{.v.N @ 9 :.v.. h D >.2.2.<.<.",
"f e ; + O - 2 7 / [ D.uXrXH.h.j.l. .#.OX<X,X{.B.m.k.8.W. X%X;X>X>X,X%X[.B.k.x J $XB.@ 4 D 1.2.<.<.<.",
"I s ; = * * = * T o.I.A.H [ V +.XX..+.XXaX-X$XV.^.B.Q..XaXaXdX1X2X1X:X{.B.B.A z.2XB.4 h D 1.2.2.2.2.",
"Y q : * ; = = o V #.D.N V L.+.k.Q.w.A.I.aX,X$X$X$X*X*X,X1XaXdXdXkXjX,X$XW.N.k.Q.NX*Xm B ( <.2.2.2.<.",
"e _ f - * * $   V L.K.} l.I.].!.E.H.A.I.rX<X$X{.$X*X2X2X2XdXkXkXkXdX1X%XQ.M.k.W.$X$Xm A <.<.9.2.2.<.",
"@.7X) % * & o   d P.9X9XoXqXtXrXOXOXG.I.OXdX%X{.$X=X2X2XdXdXkXkXkXdX1X-X[.m.7.n.{.$XJ m <.0.5.9.0.2.",
"7X@.u = * * O O d L.9XrXtXsXaXrXtXqXI.H.tXfX1X$X^.*XdXkXNXkXkXkXkXdX1X-X{.m...z.=X$X| , B 2.5.2.5.2.",
"5Xy r I ; 8 * o q K.8XrXsXsXaXsXfX0XG.I.fXCXbX X%X*X2XkXkXnXnXkXkXdX,X:X}.m.7.k.=X=XP . m 2.0.2.0.9.",
"f q W I 4 <.Z % & #.8XeXsXsXsXfXfX8XI.I.P.qX+X8.k.%X*X2XkXnXnXkXjXdX1X;X}.n.7.k.NX3XJ , ( 2.0.0.0.9.",
"r Q E q < u.s.D 5 X./.eXuXfXfXmXxX0XK.I.N l.|.V.B.$X2XdXhXnXnXkXjXdX,X%X[.M.7.H N.k.4 h / 2.0.0.2.0.",
"Q R q ) 6 D d.2.( O.K.8XuXfXcXmXvXiXI.!.J.F.].'.Q.%X1X2X2X2XhXkXhX2X1X;X XW.7.0 .   O 5 ( 2.0.0.0.0.",
"U q _ 4Xr < 4.s.1.X.$.8XeXpXBXcXbXzXaXrXJ.A.J.!.S.'. X|..X|. X1X2X1X1X>X}.W.k.n   X o $ A 9.0.0.0.0.",
"w ` 7X^ * & m a.2.H #.8X9XuXpXcXzXaXtX0XF.l.|.XX|..X X|.'.M.c. X1X1X>X>X}.[.k.n . % < 1 ( e.q.q.q.0.",
"@.7X` q Y q < u.u.| X.$._.wXyXsXtXOXXXJ.H.+X+X,XdX,X+X|.N.N.~.~.;X1X>X:X.X[.k.M > 4 , p e.q.q.q.0.r.",
"6X] r Y W q < 6.u.4.X.#._.9XyXeXJ.J.G.(.0X+X!.Q.Q.v.f.i.8.N.[.}.>X>X;X;X&X}.b.p O 1 < S r.r.r.r.0.r.",
"' t U W w # > u.s.9.+.O.L.`.wXoXX.H.H.G.S.x.U.Q.Q.Q.{.{.;X<X%X.X>X:X&X>X&X[.z.0 & = x C ( r.r.r.r.0.",
"r Y Q U t q > 2.u.6.C.X.K./.oXoXc.(.l...S.!.+X#XaXfXgXhX1X>X%X+X;X>X;X;X X'.h.8 % * m ( ( 9.r.r.r.r.",
"U Q R T 5Xt X 0 6.s.f.4.$./.`.9XXXXXI.I.oXuXuX@XaX,XaXaX>X%X%X&X&X;X;X&X.X'...0 > 3 S ( 9.r.r.r.r.0.",
"~ E f 5X' q - o Z s.a.a.o.K./.9X0XOXoX`.9X0X~.F.x.Q.>X1X&X%X%X&X&X>X>X&X Xn.P H , m B ( q.r.r.r.r.r.",
"R s ' 6XT Y Y # m s.a.a.e.D./.).oXoX(.).`.@X@X~.x..X<X>X&X&X&X.X&X=X>X.X'.h.P ../ q.9.4.y.y.y.r.r.r.",
"q _ 6X_ e ! s # m s.g.f.f.o.K._.`.`.`.(.(.@X@X#X<X#X#X X}.^.}.~.}.&X&X}.z.H k.j.A 0.9.r.y.y.r.r.r.r.",
") 6X5Xs R ! e # Z d.g.g.f.4.O./.).(.).).(.~.(.].tX+X~.~.~.~.~.~.^.^.{.n.H j.~.z.4.0.y.y.r.y.r.r.r.r.",
"5X6XT s ! Q q X S g.g.g.b.f.o.$./.).).F.)./.$.(.OXXX(.~.c.z.~.j.z.~.n.P 7.~.|.M.y.y.y.y.y.y.r.r.r.r.",
"6X` y W ~ W = # ( g.Z.Z.Y.Z.y. .D.)./.#.$.+.X.A.].].x.x.j.n.L L -.h.h.z.'.}.}.'.U.r.y.y.y.y.y.y.r.r.",
"T r U ~ Q Y $ % 0.Y.T.Y.Y.T.T.y.{ $.$.O. .X.{ X.l.F.+.+.h.h.K G H K k.~..X+X.X[.x.y.y.y.y.y.y.y.r.r.",
"@ w ~ ~ W t o n g.R.R.T.T.T.Y.Y.o.{ O.O.F { [ F o.X.....L H G x H c.~..X;X#X.X[.7.} S.f.y.y.y.y.r.r.",
"q Q ~ ~ W q o S R.R.R.T.T.T.Y.Y.S.O.O.{ g d F F H  .G G N M G L ~.~.}..X>X:X>X+Xk.= g | y.y.y.y.C.y.",
"q Q ~ ~ U # > y.T.R.R.R.R.R.Y.Y.S.D.$.#.{ / d g M F i x G  .h.~.~.}..X>X>X>X>X.X~.x   6 G y.t.y.r.y.",
"r w W W w o N T.T.T.R.R.Y.!.Y.Y.U.G.$.K.$.X.F g a F F G L ~.~.}..X.X>X>X>X>X.X.X}.P .   : C y.t.y.r."
};
