/* XPM */
static char *_f536284912a41c3ae82740f80efcb6a9RGAs33dSpJC0r1x[] = {
/* columns rows colors chars-per-pixel */
"50 50 231 2 ",
"   c #040302",
".  c #0A0604",
"X  c #060806",
"o  c #0B0906",
"O  c #0E0B09",
"+  c #100703",
"@  c #130A05",
"#  c #120E0B",
"$  c #15110E",
"%  c #1A120E",
"&  c #151310",
"*  c #1C1612",
"=  c #1E1914",
"-  c #230F09",
";  c #22140D",
":  c #28180E",
">  c #201611",
",  c #241716",
"<  c #231B15",
"1  c #2A1D15",
"2  c #251E19",
"3  c #2A1F19",
"4  c #331C15",
"5  c #27211B",
"6  c #2C221B",
"7  c #2C241B",
"8  c #32251C",
"9  c #3B231A",
"0  c #34281E",
"q  c #3A2A1E",
"w  c #2D2621",
"e  c #342A22",
"r  c #3B2D23",
"t  c #382B25",
"y  c #3D3025",
"u  c #3E3429",
"i  c #353032",
"p  c #45291D",
"a  c #5B2A1D",
"s  c #422C22",
"d  c #472A24",
"f  c #423225",
"g  c #4A3625",
"h  c #43352A",
"j  c #4B3429",
"k  c #46392D",
"l  c #4A3A2D",
"z  c #553629",
"x  c #543B2C",
"c  c #4B3D31",
"v  c #543E30",
"b  c #513F3C",
"n  c #653D2D",
"m  c #613F35",
"M  c #4F4235",
"N  c #584436",
"B  c #6B412F",
"V  c #644536",
"C  c #6C4A39",
"Z  c #69523B",
"A  c #79513E",
"S  c #595354",
"D  c #674D41",
"F  c #6A5245",
"G  c #7C5542",
"H  c #795746",
"J  c #786455",
"K  c #7B6A62",
"L  c #7F7063",
"P  c #81543F",
"I  c #885A47",
"U  c #945D45",
"Y  c #8B614B",
"T  c #97664C",
"R  c #8A6858",
"E  c #986D55",
"W  c #9A6C54",
"Q  c #997359",
"!  c #AF6E5A",
"~  c #A6755B",
"^  c #8C7468",
"/  c #8F766F",
"(  c #977868",
")  c #A37C62",
"_  c #AA7D65",
"`  c #B77966",
"'  c #AF7D70",
"]  c #C46C5F",
"[  c #C97466",
"{  c #CB7F74",
"}  c #AD895F",
"|  c #978574",
" . c #AA8465",
".. c #AC856A",
"X. c #AE8C6B",
"o. c #B4856A",
"O. c #B98469",
"+. c #B38C6D",
"@. c #BA8B6D",
"#. c #BA936D",
"$. c #A98976",
"%. c #B68C74",
"&. c #AB937F",
"*. c #B59574",
"=. c #BC9475",
"-. c #B9967B",
";. c #C4836C",
":. c #C28872",
">. c #CA8C73",
",. c #DB817F",
"<. c #C29275",
"1. c #C79876",
"2. c #C49679",
"3. c #CC957C",
"4. c #C49A7A",
"5. c #CB9A7D",
"6. c #D1957A",
"7. c #CDA77F",
"8. c #AC8E81",
"9. c #AD9788",
"0. c #B79783",
"q. c #BB9C8B",
"w. c #B69D93",
"e. c #BDA38A",
"r. c #BDA292",
"t. c #BBA69A",
"y. c #B0A8A4",
"u. c #D98C88",
"i. c #C59A86",
"p. c #CC9D82",
"a. c #D79785",
"s. c #D39E85",
"d. c #D59E8B",
"f. c #E29890",
"g. c #C5A483",
"h. c #CDA385",
"j. c #C5A38B",
"k. c #CDA48C",
"l. c #C3AA8E",
"z. c #CDAC8C",
"x. c #D2A286",
"c. c #D4A48A",
"v. c #DCA58D",
"b. c #D4AA8D",
"n. c #DBA98E",
"m. c #C4A493",
"M. c #CAAA94",
"N. c #C6AA98",
"B. c #CCAD9C",
"V. c #D3A593",
"C. c #D5AC93",
"Z. c #DBAC93",
"A. c #D9A898",
"S. c #C7B29A",
"D. c #D3B394",
"F. c #DBB295",
"G. c #D5B49B",
"H. c #DBB39B",
"J. c #D7B999",
"K. c #DBBB9D",
"L. c #E2A998",
"P. c #E2AC9A",
"I. c #E3B49C",
"U. c #E1B99D",
"Y. c #C8ADA2",
"T. c #CCB2A4",
"R. c #CDB6AB",
"E. c #D5B7A7",
"W. c #D5BAA5",
"Q. c #DBBCA3",
"!. c #DDBDAB",
"~. c #D9BCB2",
"^. c #E4A9AA",
"/. c #E3B4A2",
"(. c #E3BBA4",
"). c #E9B9A4",
"_. c #E6BCAA",
"`. c #EABEAC",
"'. c #E3BDB2",
"]. c #E5BCB7",
"[. c #DFC1A5",
"{. c #D4C2AC",
"}. c #DDC3AB",
"|. c #DAC2B4",
" X c #DCCBB5",
".X c #DDCABB",
"XX c #DFD2BF",
"oX c #E4C2AB",
"OX c #E9C3AE",
"+X c #E7C8AB",
"@X c #E5C4B4",
"#X c #EBC5B3",
"$X c #E4CAB4",
"%X c #EACAB5",
"&X c #E6C6BA",
"*X c #EAC6BB",
"=X c #E4CCBB",
"-X c #ECCCBB",
";X c #F0C7B5",
":X c #F1CDBD",
">X c #E5D1BD",
",X c #EBD0BE",
"<X c #DFCEC2",
"1X c #E8C7C1",
"2X c #E4CCC3",
"3X c #EBCEC2",
"4X c #F2CFC1",
"5X c #E4D4C3",
"6X c #ECD3C4",
"7X c #E4D9C6",
"8X c #ECD9C4",
"9X c #ECD5C9",
"0X c #E6DACB",
"qX c #EDDBCD",
"wX c #F1D1C4",
"eX c #F2D5CA",
"rX c #F0DACD",
"tX c #E7DFD1",
"yX c #EEDED1",
"uX c #F1DED3",
"iX c #EEE1CD",
"pX c #ECE2D4",
"aX c #EDE6DA",
"sX c #EBE8DC",
"dX c #F1E3D5",
"fX c #F1E4D9",
"gX c #F8E6D8",
"hX c #F2EBDD",
"jX c #ECEFE8",
"kX c #F3ECE3",
"lX c #F6FDF7",
/* pixels */
"5 2 6 8 7 ; # < e t q 8 0 6 q N A R Q Y R E R E ( Q Y C N N s e 8 1 < % < 5 * $ 2 = > y c r 8 1 % O ",
"5 6 y q 8 < % < t h f l N N H ( q.4.0.j.G.C.k.h.h.h.5.@.~ Y A m j q 8 7 5 = % % * * = g r 3 8 1 % # ",
"2 e k k 8 2 5 7 y h k H R E %.i.V.G.Q.oXoXoX(.(.U.F.b.p.1.#._ E I z q 6 < 2 5 2 % $ $ 7 2 # < 4 > $ ",
"5 0 k c 8 7 1 7 h l N R ) X.i.G.Q.Q.oXoX@X+XoXoX(.U.F.C.h.5.:.~ ~ A s 8 < 8 e e = % # 1 1 < 5 r 1 # ",
"5 7 k M f , 6 0 r x F Q ..j.W.oX@X#X$X#X$X%X+X+XoXoXU.H.C.b.p.=.o.~ B s y e t t 5 < * < 6 e r r < # ",
"2 5 u N M y 0 q d V R $.i.T.oX&X-X-X%X-X%X%X%X#XOXOX(.U.U.F.C.x.1.o.I x e 6 w w 2 < 5 2 < 1 e 6 2 * ",
"5 5 e k M v q 4 x ( 8.j.C.!.&X8X6X-X6X,X,X%X%X%X%XOXOXoX(.(.H.n.p.<.~ C w = * 2 5 2 = 2 < 5 e w 3 2 ",
"5 5 5 5 y l l r J r.B.B.W.$X5X8X8X6X6X,X,X-X,X-X%X%XOXOX(.(.F.C.x.2._ Y x 2 = 6 3 < & = 5 w w w 2 5 ",
"5 1 2 2 7 h M N | Y.S.W.}.>X8X9X6X-X-X,X-X,X,X-X%X%X+XOX(.K.Z.Z.b.h.@.~ I f 5 u < < 2 < 5 e 6 < 2 6 ",
"2 2 2 5 8 l x C &.T.T.W.@X6X9X8XwX-X-X%X%X%X%X%X%X%XOXoX_.(.F.F.Z.c.5.o.~ A p 7 = 5 6 6 2 6 0 < < 6 ",
"= < < < 6 N u Z 9.r.N.W.=X6X9X9X6X,X,X-X%X%X#X%X%X#X%X+X_.(.H.A.Z.x.p.@.~ T z = < 5 w w 8 5 5 1 > 1 ",
"7 6 < < 0 f q F 9.$.j.@X=X2X9X9X9XeXwXwX6X,X-X%X%X,X-X%X%X#XH.A.V.p.5.:.~ W z < > 5 e t u 8 6 3 < 5 ",
"k f y q f f j F $.0.T.$XR.Y.T.~.5X5X9X9X9X9X6X6X,X,X6X-X6X&XS.-.$.' _ _ ~ U z 0 1 < 2 t u e 2 2 5 r ",
"y r q y k g 8 J r.B.Y.r.| / / ^ $.q.~.2X6XqXwXwXwX6X&X!.m.$.R D H Y H G T z ; 1 1 e t 6 0 0 * 5 y 8 ",
"f y q q q 0 8 ^ N.r.8.Y.R.|..XT.T.~.|.2X8X9XqXwX,X%X!.M.-.-.q.M.!.!.B.%.E 4 5 r u r 7 < < < % 7 h 5 ",
"y f p q 6 7 s ) M.&.~.0XpXqX6X5X7X5X8X9XqXqXrX,X#X(.H.H.Q.@X%X-X>X_.F.p.3.C - k N y 5 < % < : 7 l 7 ",
"7 q r 0 8 5 l 8.m.T.yXqXqX9X6X&X%X%X-X8XyXdXdX6X(.n.b.G.!.oX}.+X`.E.d.2.<._ 4 p 8 8 8 > % * 7 6 y u ",
"f q y 8 7 = h q.T..X7X5X.XN.^ ^ 0.G.(.=XqXdXqX@XZ.s.h.C.C.k.q.J D R ..o.O.=.A : 4 1 6 < = = f 0 7 u ",
"r 0 t r 5 1 h r.~.5X5XR.9.y.S i J T.C.=XqX0X3X/.s.6.h.G.i.<.y.S i M K G ~ =.~ p 9 6 0 6 < # : 8 1 7 ",
"l h r s 8 @ h N..X0X.X0.t.jX/ d 8.~.c.}.2X2X@X/.a.>.5.b.3.i.Y.^ z ( 9.I T @...p g 1 8 q 0 1 1 1 : * ",
"k h r 0 < @ c i.7X7X X~..X2X~.Q.oX!.Q.~.&X@X'.P.a.;.1.7.p.V.M.C.B.i.i.%.@.#.4.B n : 4 y r 8 1 1 5 * ",
"w y f q 4 e x m.7X<XXX>XqXyX9X6X&X'.@X@X@X_.'./.a.;.>.6.p.d.V.H.H.H.C.c.5.4.=.P n p 8 0 8 6 8 8 1 = ",
"e f l p 8 e Z B.>X=X=X>X,X,X2X&X@X@X-X-X&X@X@X/.a.;.;.>.s.c.C.G.K.K.J.Z.h.7.@.U P z % : 1 8 8 9 : * ",
"e y f j s d Z T..X=X=X=X&X%X@X#X@X*X-X-X&X@X'._.v.>.;.>.v.L.C.v.n.n.F.n.b.x.1.@.~ z ; 8 8 6 8 7 1 * ",
"7 y f j d j v B.1X2X2X6X3X-X-X:X-X:XwX-X!.].*X`.P.6.O.;.6.n.I.P.f.v.L.n.n.n.5.<.E s @ : 7 5 * 8 1 = ",
"e r r s d j B q.2X6X9X9XwX:X*X:X:X:X-X'.P.&X9X1X&Xd.;.` ] 3.P.).I.L.L.L.L.7.5.<.W z % ; : : : 8 < < ",
"6 8 8 8 j H I i.2X2XrX9XwXwX4X4X:X;X`.*X].].&X&XQ.i.{ ;.;.;.n.`.`.).I.L.n.7.6.<.~ V 9 ; % % : 7 = % ",
"6 5 2 $ 4 ( ) M.1X9XuXuXrXeX4X4X;X;X*X].A.i.~._.V.` ! ;.>.a.U.OX;X).).I.L.v.6.>.Q A p : ; @ * < % = ",
"1 < * * O F E ' =X9XyXuXuXeX4X;XOX:XwX-X*X*X&X'.(.K.c.a.6.v.I.OX%XOX).I.Z.x.1.@.Q T a 4 % @ # @ # % ",
"1 < 1 > * 4 $.d.~.6XyXyXuXeX:XOX;XwXwXwX3X3X:XOX*X,X/.v.f.v.v.I.).`.I.I.n.h.1.o.~ ~ U q o @ O O O O ",
"t 6 6 > , . / 9X.X2X9X9XeXwX-X%X6X9X9X3X3X3X#Xf.P./.P.n.v.6.v.n.U.).I.P.c.5.<.o.O.1.O.p O O O O O O ",
"6 5 , , % . F wX=X2X8X9XrXwX-X%X6XyX9X6X1X'.f.u.,.u.u.a.6.6.7.v.F.U.I.Z.x.3.1.o.1.6.W @ o o X X O O ",
"1 2 * * % # , ( B.wXeX9X9XrX,X+X>X=X~.~.'.*X9XuX].6XE.d.{ ` :.k.H.I.U.n.5.5.5. .W P > # O o . X O O ",
"6 5 * % $ O O o 4 ~.gXuX6XrXiX%X@X' 8.sXjXlXlXlXjXlXsX|.B.' Y ..G.I.I.C.x.5.5.Q .   # # o . X o X O ",
"5 w , * $ O $ O O w.kXuXqXrXiX,XqX2XV.A.].].1X1X'.].V.>.:.` ` 2.J.U.I.n.x.h.1.I   # # @ o o . o O O ",
"w 5 2 * # # # $   K uXuXdXiXdXgXyX9X6X&X^.^.f.u.{ u.u.[ ] ` 3.c.F.U.U.n.x.h.1.N . @ O o o o . X X O ",
"6 2 = * & O O $ o t 9XyXdXpXdXfXpXqXqXqXqX9X`.^.^.f.v.d.d.d.h.x.n.J.F.c.x.5.+.8 % # . . X X o o O O ",
"2 w 6 < # O O $ $ + t.gXyXdXfXfXfXyXrXrXuXiXeX-X;X;XoX(.H.C.c.c.n.F.b.b.h.5.E + * # o X     O O O O ",
"2 w 5 2 $ O X $ O   D yXyXpXpXfXfXqXqXdXuXrXrX-X*X-X%XoXU.Z.n.c.b.b.b.x.5.=.M . # # O .   X o O # O ",
"2 w t 6 * # O X O O . 9.dXyXdXdXfXqXqXrXrX6X-X;X#X`._._.(.C.b.c.7.x.x.5.=.Q @ @ # # . X   o o # # O ",
"5 e e r 2 O X O # O   K iX0XpXiXyXqXqX9XeX6X*X`.`._./.I.I.Z.x.p.5.g.7.#.} R @ @ # % # . X . O # # & ",
"5 < < e = & & = & O   L dX7XqXqXtXyXqXuXrXqXeX*X#X`.).I.A.Z.p.5.4.4.=.X.X. .@ O # % & O . . O O O & ",
"1 6 5 5 = & & & & O   | hX0X7X0X0X9XqXyXuXuXrX-X].#X_./.Z.c.p.-.=.*.X.X.7. .O O @ # & o . & = $ # & ",
"8 8 w 5 = & & = $ O . 9.hXsXiX7X5X7X0X0X9XqXeX*X#X`.(.A.V.p.=.*.+.X.*.g.z.X.@ o @ # # O . $ * * # & ",
"e 6 6 5 & # & = & # O t.hXsXpXpX7X5X5X5X5X5X>X$X@X!.G.j.g.*.%.X.X.*.g.D.z.4.: X @ # # & X # * * $ $ ",
"w 5 2 < O & = 2 = O :  XiXsXaXsXsX0X7X5XXX.X X{.E.N.e.-.&.*.*.*.4.z.D.J.D.h.g   O # * = = * $ & # # ",
"e 6 = * # # = 6 k % M iXpXaXsXhXaXpXpXtX0X7XXX X{.S.l.j.l.g.7.g.z.J.K.K.D.7.H   O $ * * * < * , % # ",
"e 5 5 = & # * 5 7 @ / hXpXsXkXkXkXhXsXkXsXsXpXiX7X X}.W.J.z.l.M.J.[.[.K.D.g.} 4 O % * * & & < 5 % % ",
"6 e 2 * $ O $ # O < {.sXpXhXkXkXkXkXkXkXkXhXkXfXpX8X$X}.Q.D.D.G.[.[.[.[.D.g.#.Z @ * < $ $ @ % = = % ",
"t e * $ $ # O O   J pXpXaXkXkXkXlXkXkXkXkXkXkXfXpX8X>X}.{.J.G.K.[.[.[.K.D.z.#.~ p 6 y : $ # $ = = # "
};
