/* XPM */
static char *_ff46156d0c44c29db558882b7721905IF40VyYzWO8SS4Wx[] = {
/* columns rows colors chars-per-pixel */
"50 50 247 2 ",
"   c #010001",
".  c #0C0304",
"X  c #0B070A",
"o  c #120404",
"O  c #130806",
"+  c #190807",
"@  c #12060A",
"#  c #130A0B",
"$  c #1A0D0D",
"%  c #1C110F",
"&  c #160E11",
"*  c #0A101E",
"=  c #1C1312",
"-  c #1A181A",
";  c #240C09",
":  c #23120D",
">  c #2D120D",
",  c #32130C",
"<  c #2F0F11",
"1  c #231513",
"2  c #2A1613",
"3  c #251915",
"4  c #2C1A15",
"5  c #221519",
"6  c #231B1A",
"7  c #2A1D1B",
"8  c #341B17",
"9  c #24201F",
"0  c #2D211E",
"q  c #33221D",
"w  c #39231B",
"e  c #3E281E",
"r  c #171B25",
"t  c #261E23",
"y  c #1C2023",
"u  c #2B2323",
"i  c #2A2728",
"p  c #372A28",
"a  c #382F30",
"s  c #393736",
"d  c #431D14",
"f  c #47291F",
"g  c #432C23",
"h  c #492A26",
"j  c #542D22",
"k  c #4A332A",
"l  c #533729",
"z  c #463836",
"x  c #563B34",
"c  c #633A37",
"v  c #48413D",
"b  c #5C4538",
"n  c #68473A",
"m  c #75493A",
"M  c #6E553C",
"N  c #2C3748",
"B  c #443F43",
"V  c #3B4452",
"C  c #3F4B63",
"Z  c #494646",
"A  c #574B48",
"S  c #5B534C",
"D  c #4C4E56",
"F  c #5B5454",
"G  c #654B43",
"H  c #6B4A45",
"J  c #734C44",
"K  c #695549",
"L  c #795648",
"P  c #685A56",
"I  c #775C54",
"U  c #75614E",
"Y  c #6B625A",
"T  c #79675B",
"R  c #495569",
"E  c #545B63",
"W  c #5D616A",
"Q  c #686466",
"!  c #766A66",
"~  c #7C716D",
"^  c #646B71",
"/  c #7B7574",
"(  c #865A49",
")  c #96584C",
"_  c #8A5E53",
"`  c #AD5A53",
"'  c #88634C",
"]  c #896759",
"[  c #936858",
"{  c #9B6D58",
"}  c #9B6C5C",
"|  c #A66D4F",
" . c #A66758",
".. c #A1725B",
"X. c #896B65",
"o. c #9C6D63",
"O. c #88766A",
"+. c #957363",
"@. c #9C7463",
"#. c #997A69",
"$. c #887C74",
"%. c #987D77",
"&. c #A86B63",
"*. c #A37563",
"=. c #AC7563",
"-. c #A57965",
";. c #AB7C65",
":. c #A1736A",
">. c #A47B6C",
",. c #AB7C6D",
"<. c #B27B63",
"1. c #B87869",
"2. c #AE7570",
"3. c #B37A74",
"4. c #C56967",
"5. c #C67872",
"6. c #898179",
"7. c #96857A",
"8. c #A9826C",
"9. c #B7866D",
"0. c #A48273",
"q. c #AC8473",
"w. c #AC8879",
"e. c #B38474",
"r. c #B98576",
"t. c #B48B75",
"y. c #BC8C75",
"u. c #B48C7B",
"i. c #BB8D7B",
"p. c #BA9177",
"a. c #BC927D",
"s. c #C38B73",
"d. c #CA8D71",
"f. c #C88B76",
"g. c #C48D7B",
"h. c #C69376",
"j. c #C4947C",
"k. c #CA937D",
"l. c #C6997E",
"z. c #CB997D",
"x. c #D1947A",
"c. c #888583",
"v. c #998C85",
"b. c #9B9589",
"n. c #9D928C",
"m. c #9D9591",
"M. c #A98982",
"N. c #B98B84",
"B. c #A6948C",
"V. c #BC9484",
"C. c #B9958A",
"Z. c #A49B93",
"A. c #A89D98",
"S. c #B99B94",
"D. c #ABA29B",
"F. c #B9A49B",
"G. c #B6ABA6",
"H. c #C58E81",
"J. c #C49583",
"K. c #CB9382",
"L. c #C49A84",
"P. c #CC9B83",
"I. c #C6978B",
"U. c #CB9D8B",
"Y. c #D39583",
"T. c #D29C83",
"R. c #D49C8B",
"E. c #DA9A88",
"W. c #C79E94",
"Q. c #D69E93",
"!. c #E19F8B",
"~. c #CAA08B",
"^. c #D6A287",
"/. c #D4A28B",
"(. c #DBA38C",
"). c #CDA393",
"_. c #C7A69A",
"`. c #D4A393",
"'. c #DAA597",
"]. c #DCAA94",
"[. c #D3A59B",
"{. c #D5AB9C",
"}. c #DBAB9C",
"|. c #DAB29C",
" X c #E2A48D",
".X c #E3A591",
"XX c #E3AB94",
"oX c #E3AD9B",
"OX c #EAAB99",
"+X c #E5B29B",
"@X c #E7B69B",
"#X c #EAB59D",
"$X c #C9ACA4",
"%X c #D5ACA4",
"&X c #DBACA2",
"*X c #C8B3A7",
"=X c #DAB7AB",
"-X c #C6B9B2",
";X c #D4B7B3",
":X c #DCBBB3",
">X c #E3B3A2",
",X c #ECB4A2",
"<X c #ECBAA3",
"1X c #E4B6A9",
"2X c #E3BCAC",
"3X c #ECBCAB",
"4X c #EEB9AC",
"5X c #F1B9A7",
"6X c #E6BDB2",
"7X c #DAC3B9",
"8X c #F4C6AA",
"9X c #F2C3AC",
"0X c #E4C2B5",
"qX c #EBC4B4",
"wX c #E6C4B9",
"eX c #EBC5BC",
"rX c #E5CABD",
"tX c #EDCABE",
"yX c #F3C4B3",
"uX c #F5CAB5",
"iX c #F4C5BB",
"pX c #F4CCBB",
"aX c #EAD0BF",
"sX c #F7D1B3",
"dX c #F5D1BE",
"fX c #DDCBC7",
"gX c #E6CDC5",
"hX c #F4CDC4",
"jX c #ECD2CA",
"kX c #EAD5C8",
"lX c #F6D3C4",
"zX c #F3D4CA",
"xX c #F9D6CA",
"cX c #F7D8C9",
"vX c #F8DACB",
"bX c #ECDBD6",
"nX c #F4DCD3",
"mX c #F8DAD4",
"MX c #EEE6D9",
"NX c #F7E2D9",
"BX c #F9E4DD",
"VX c #E9E7E7",
"CX c #FBEBE5",
"ZX c #FAEAE6",
"AX c #FDF2EB",
"SX c #FCF7F5",
"DX c #FEFEFE",
/* pixels */
"              - s v i i i 9 7 p z s 0 q q p z v p q % = = # - - 6 1 = 9 4 4 : % % O   X D F E E W ^ ",
"              u Z s s a u 6 0 z A G K K U T T T b b b k g w 1 # : 6 3 = % 3 3 3 3 %   a c.6.c.c.c.c.",
"              a V s s a a p k G T #.#.0.w.w.w.#.] +...@.[ ( n l ; % 0 1 % $ % 3 % 3 3 v D.Z.Z.D.Z.m.",
"            - Z s a i u p A ] #.u.L.~.~.~.~.V.t.p.~.l.l.a.t.9.{ n 8 1 u = % O % % = 3 p v s s s s s ",
"            a s i i q z K #.C.).{.}.oXoX].].]./.^.].].^.^.~.l.y.8.M j 2 6 = # + O % = - %           ",
"          t Z s u 1 p L 0.S.|.|.+X+XXXoXXX@X+X@X<X@X@X@X@X(.^.l.s.8.m f 3 2 % # O X # % = #         ",
"X X X   X Z Z i % p L 7.~.|.|.@X+X+XXXoX@X@X@X<X8XsX8X8X8X@X].^.z.h...n , 4 1 $ % X # $ % = O       ",
"N V *   B S i - p K 7.F.|.0X<X<X<X#X@X@X@X@X#X<X8XsXsXsX8X8X@X^.z.z.s.{ l 3 1 = # X O # $ % %       ",
"D N * i Y i & a U 7.C.2XqXuX8X9X8X<X<X#X#X#X#X,X8X8X9X8X@X@X].^.T.z.p.8.' d ; = = X X # + 1 1 #   X ",
"R N * s W - i Y 6.F.=XqXdXsXaXsX8X9X8X#X#X#X#X<X<X@X<X#X+X].^.^.P.z.h.9...n > : - & # # & = 1 5 & X ",
"R V r Z S y A ~ w.*XrXaXcXcXlXdXuXyX9X#X<X#X<X#X@X<X@X@X@XXXXX^.T.P.l.p.t.] l , 1 = @ # X = 1 t 0 y ",
"R N - W F a Y 7.D.7XaXdXvXvXvXlXpXyX3X8X#X#X,X1X@X@X+X+X+X@X].^.T.P.l.j.p.8.M , 1 1 & @ # & : p A V ",
"R N i Q Z v ~ M.*XrXkXcXcXcXvXcXdXuX3X5X,X,X@XOXoXoXoX+XXXXX(./.P.P.P.L.l.9...j ; 2 = & @ & 4 1 m.VX",
"C V D ! S F ~ B.7XaXcXcXcXcXvXcXlXpXyX<X@X>XOXoXoXoXXXoX].].`.U.U.P.P.L.j.y.9.m ; % % & & = 7 # ~ DX",
"r y F Q P F $.D.7XkXvXcXdXcXcXcXxXhXyX3X,X,XoXoXoX}.}.'.{.'.`.U.I.I.J.a.p.t.y...d < % & & = 7 7 u Q ",
"X i P F F P 6.*XkXnXvXcXdXsXdXdXhXhXeX4X1X1X&XoX}.}.}.'.Q.I.J.N.u.w.q.-.@.@.*.-.c ; % & - & 5 t u p ",
"- a P Z F Q n.;XnXBXmXzXhX6X6X:X;X:X:X%X%X&X&X&X}.{.{.U.I.w.>.X.I H n J ( X.@.{ L , ; # = = - q 8 u ",
"y z P u A $.n.fXBXmXzXeX;X_.A.%.X.X.M.M.C.).[.{.}.{.).I.u.@._ m n J o.%.u.i.N.V.>.l ; + - = = 7 u u ",
"& Z P 0 F ~ Z.nXBXNXgX$X$X$XS.M.%._ I X.0.C._.%X%X{.W.V.w.@.[ ] o.w.C.H.u.u.a.V.J.L , + & 1 = 1 0 u ",
"y S Z i Y ~ A.ZXZXbXfXjXmXjX:XF.S.C.%.#.0.S.{.=X2X&X).V.q.@.o.+.X.+.#.X.] [ +.8.a.[ h ; # = $ % 7 8 ",
"- F s - / ~ A.ZXZXZXZXBXjX;XW.N.%.#.+.%.3.S.$XwXeX1X`.J.8.{ ' ( L G p 8 h H ( ( @.0.c > o $ = % 7 7 ",
"i Q a # $.Q D.SXAXZXBXgX$XS.M.X.G c H J ] #.~.rXvXqX{.J.-.m m m L G 5 t z j j m { @.J , o o = % 1 7 ",
"D ! u X $.W D.AXZXBXzX*XB.%.P z + 2 x c c J w.tXmXqX}.P.<.' ( ' [ [ [ +.X.[ [ ..;.-.' h + o $ $ $ 3 ",
"^ / $ 3 v.A A.SXCXnXrX_.X.c ! X.I I _ [ &.q.).qXhXyX].z.s.y.<...-.,.u.e.e.2.<.9.9.s.r.m ; . @ = # 1 ",
"Z Q w K n.z D.DXCXxX0X{.S.F.%X$XI.V.e.8.r./.5XuXpX3X.XY.k.h.s.;...{ o.@.>.,.9.f.x.k.h.*.f o . $ + % ",
"~ P p X.M.Y G.DXBXxXiX1X&X{.{.W.V.,.*.g.`.3XyXpXpX5X.Xx.x.x.x.z.z.z.k.k.P.E.E.E.x.K.h.y.c @ . @ O # ",
"G.! 4 U #.v.-XDXZXxXhX4XoX}.'.`.U.~.}.3X9XyXuXpXyX,X Xx.x.z.z.^.(. X.X.X X!.E.E.Y.Y.k.j.( ; . @ O O ",
"$.Q p ] X.B.-XSXZXxXxX4X4X4X5X,X,X5X5X5X9XpXlXpX,X.Xx.x.d.h.x.^.(..X.X.X.X XE.x.Y.x.k.g.-.,   . O # ",
"T T l ] L C.7XSXZXmXmXhXhXiX4X5X5X,X,X,X,X6XpX4X,XOX!.x.d.d.s.y.k.E.E.(.!.!.E.E.Y.K.f.H.w.h   . . # ",
"$.! x I J M.$XVXAXBXmXxXhXhXiX4X5X5XOXOX(.+XuXhXiX,X.XT.d.d.d.8.<.k.E.R.!.Q.Q.R.Y.k.H.r.r.x     . % ",
"7.~ S P _ ,.%.gXSXZXBXmXhXhXiX4X4X,XOXQ.5.>XxXzXhX}.Y.s.9.d.d.9.| 1.5.Y.Q.Q.Q.Y.K.K.H.i.r.M .   . % ",
"b.~ P K I 2.X.;XDXZXZXmXmXhXiX4X,XOXQ.k.=.}.iXu.N.I.3. .m | 9.| =. .3.g.K.R.K.K.K.K.g.r.8.L .   . = ",
"m.~ Y K 8 q.M.;XDXAXZXmXzXhXhX4XoXQ.H.3.s.U.W.&.C.I.2._ ( ) ) <.1.=.=.3.i.g.H.H.H.g.i.i.q.' o   X 1 ",
"Z.! U S o X.C.gXDXSXZXmXmXhXeX1XQ.H.3.9.Q.1X:X:X6XC.%.2.:.{ ..r.s.e...-.q.r.u.u.i.i.i.a.q._ +   @ 1 ",
"m.P Y S O P S.fXDXSXZXmXjXeX:XQ.J.3.&.N.;X6XwX:X$XC.u.w.q.,.9.g.j.y.;.} o.2.q.e.r.u.i.u.w.] +   & 5 ",
"m.K T Q % p $XgXDXSXZXhXeX:X%XI.3.:.:.Q.qXhXeX;XW.M.3.N.V.J.j.j.k.j.y.-.[ } q.t.u.a.a.u.t.] +   & 1 ",
"b.P T Q 0 % O.bXDXSXBXhXeX;X[.N.&.o.I.hXhXhXeX;XW.N.g.H.Q.g.f.g.y.a.g...[ ( e.V.a.V.a.a.e.I o . = 1 ",
"b.Y T Y 0 0 : P AXDXmXjXeX;X$X2.( M.:XjXzXhX;X_.N.N.3.&. .) )  .} _ c ( } ( u.L.~.V.a.u.q.H   . % 1 ",
"b.U T ! 0 q 4   G.DXBXjXgX6X%X,.L 2.N.M.S.W.N.M.3.C.2.&.3.:.,.,.:.c d } a.t.L.J.~.a.a.w.w.x   X = 1 ",
"m.~ ~ T w w 4   E DXmXzXeX0X=XJ._ :._ < c ;XfXmXfXjX:X;XgX%XtX*Xw.J ) J.l.P.U.L.~.a.w.,.#.8 . + 1 2 ",
"a.7.6.U l e e O = fXZXzXgX6X2X'.y.i.).>.J S.bXSXMXAXbXbXNX:X:Xr. .=.z.p.l.~.~.~.a.t.8.#.L o . + 1 : ",
"D.7.6.' b b e :   $.AXjXeX6X0X1X/.l.@XdX%XN.W.1X%X&X{.Q.Q.3.) ` 1.s.l.l.l.~.l.V.a.8.8.O.p   . $ 1 2 ",
"D.b.6.6.U M l 4 + 1 G.mXwX0X2X2X|.l.+XtXhX6XQ.5.4.4.4.4.5.1.` 5.f.k.z.l.l.l.a.a.q.8.#.b   . . & : > ",
"D.b.7.6.6.U b e 2 $ 7 -XnX0X7X2X2X].&XpXhXhXiX&XR.5.4.1.4.4.s.K.j.l.l.l.l.a.a.t.8.+.M O   . o $ > 4 ",
"D.Z.b.6.6.' b e 4 0 o p D.gX7X2X2X+X&XuXhXzXhX3X&XQ.I.K.K.g.J.J.J.P.z.l.l.l.a.8.#.' 4   X X @ ; 4 4 ",
"D.b.Z.b.6.{ M k w q > o 1 B.gX7X0XqX0XsXlXlXpX6X1X%XQ.Q.U.U.R.U.T.P.z.l.V.a.w.0.] l .   X X @ 2 8 8 ",
"D.b.D.b.O.6.U b f f 4 : O 0 B.7X7X0XpXdXlXdXpXqX3X>X}.'..X].(.^.^.l.z.~.a.t.8.+.G u @   @ # + 7 w 8 ",
"D.b.F.D.7.6.U b f p 4 4 2 : Q kXrXrXdXlXvXxXdXuX3X,X,X#X@X+X(.(.^.^.l.a.t.0.+.L x q X . # @ = q f w ",
"D.Z.G.G.7.6.U M g g q 0 4 4 b fXkXaXaXkXMXvXcXdXyX3X,X+XXX.XR.R.z.z.L.t.0.+.U n x q o . % $ 4 f h f ",
"D.b.*XG.w.6.M M e 0 q 4 4 e e 7XMXrXrXaXvXNXvXdXiX3XoX'.`.Q.R.P.L.a.t.8.8.T K M b w + O $ : w f l g "
};
