/* XPM */
static char *_b9f9cfc495a48b3c2dec5b127be7af3PNw1rnmxzx9VyowA[] = {
/* columns rows colors chars-per-pixel */
"50 50 245 2 ",
"   c #020809",
".  c #0B0D0D",
"X  c #170C0C",
"o  c #0D110F",
"O  c #1B120D",
"+  c #0B0D12",
"@  c #0E1512",
"#  c #0A1617",
"$  c #131514",
"%  c #1B1716",
"&  c #111916",
"*  c #151A19",
"=  c #1B1C1B",
"-  c #230D05",
";  c #241A18",
":  c #311C15",
">  c #2A231D",
",  c #3E2417",
"<  c #251E22",
"1  c #1D2222",
"2  c #252525",
"3  c #262927",
"4  c #2C2C2C",
"5  c #312423",
"6  c #392C28",
"7  c #34322D",
"8  c #343332",
"9  c #3A3936",
"0  c #3D3B3B",
"q  c #452918",
"w  c #5B2C1B",
"e  c #61351D",
"r  c #462C26",
"t  c #502E22",
"y  c #4A3428",
"u  c #573B2B",
"i  c #433B36",
"p  c #413E3D",
"a  c #563D31",
"s  c #5A3D32",
"d  c #663D2F",
"f  c #2F4038",
"g  c #47433D",
"h  c #5A4538",
"j  c #6E4429",
"k  c #674736",
"l  c #754B37",
"z  c #75523D",
"x  c #79513C",
"c  c #413F40",
"v  c #3A4A42",
"b  c #4B4646",
"n  c #544944",
"m  c #524D4C",
"M  c #5B544C",
"N  c #5C564E",
"B  c #4E5251",
"V  c #5B5553",
"C  c #595554",
"Z  c #63574A",
"A  c #7C5442",
"S  c #70534A",
"D  c #795748",
"F  c #635C52",
"G  c #635C5A",
"H  c #686256",
"J  c #6A625D",
"K  c #796757",
"L  c #7B745E",
"P  c #5A6361",
"I  c #6C6564",
"U  c #6B6866",
"Y  c #736B67",
"T  c #68726E",
"R  c #78716D",
"E  c #7D7575",
"W  c #7B7977",
"Q  c #824C39",
"!  c #88553E",
"~  c #93563A",
"^  c #835A45",
"/  c #8C5A43",
"(  c #895946",
")  c #945B46",
"_  c #8A5A50",
"`  c #B1544D",
"'  c #8C6349",
"]  c #946449",
"[  c #9D654C",
"{  c #9C6C4D",
"}  c #8C6A56",
"|  c #9A6651",
" . c #9C6B52",
".. c #9C6A58",
"X. c #82735C",
"o. c #9D755C",
"O. c #A36A4E",
"+. c #A7684D",
"@. c #A36B52",
"#. c #A66956",
"$. c #AB6D55",
"%. c #AD6E5A",
"&. c #B26D52",
"*. c #BB695B",
"=. c #A67254",
"-. c #AA7356",
";. c #AB755A",
":. c #AA765A",
">. c #B37253",
",. c #BC7355",
"<. c #B17B57",
"1. c #B3755D",
"2. c #BA765A",
"3. c #B57A5C",
"4. c #BC7A5C",
"5. c #8B7767",
"6. c #977765",
"7. c #92736A",
"8. c #837A76",
"9. c #877C77",
"0. c #827B7A",
"q. c #BB6C61",
"w. c #AA7866",
"e. c #B47B61",
"r. c #B77A66",
"t. c #BB7D63",
"y. c #D15C5D",
"u. c #C16B5C",
"i. c #D2615E",
"p. c #C4785A",
"a. c #C37A5C",
"s. c #D26E69",
"d. c #C37D63",
"f. c #CB7E61",
"g. c #C77968",
"h. c #D37863",
"j. c #79827E",
"k. c #BC825F",
"l. c #8E8777",
"z. c #86817A",
"x. c #8A827D",
"c. c #988371",
"v. c #A7836B",
"b. c #BC8363",
"n. c #B78568",
"m. c #BD826A",
"M. c #AA8875",
"N. c #B88874",
"B. c #B09178",
"V. c #BA9479",
"C. c #C48364",
"Z. c #CC8264",
"A. c #C58965",
"S. c #C3846B",
"D. c #CC856B",
"F. c #C58A6D",
"G. c #CC8B6B",
"H. c #D28466",
"J. c #D58A67",
"K. c #D2866B",
"L. c #D8876E",
"P. c #D48B6C",
"I. c #DA8D6C",
"U. c #CB956E",
"Y. c #D4956E",
"T. c #DB936D",
"R. c #D9996E",
"E. c #C68D76",
"W. c #CC8C73",
"Q. c #D38C73",
"!. c #D78A77",
"~. c #DB8C72",
"^. c #CD9573",
"/. c #CA977A",
"(. c #C39C7C",
"). c #D49574",
"_. c #DD9473",
"`. c #DB9A73",
"'. c #D59678",
"]. c #D49B7B",
"[. c #DC9C7B",
"{. c #E19576",
"}. c #E39B75",
"|. c #E19678",
" X c #E39C7B",
".X c #C8A37C",
"XX c #D4A37D",
"oX c #DDA27D",
"OX c #DCAA7E",
"+X c #E3A077",
"@X c #E3A37C",
"#X c #E6A67E",
"$X c #787A82",
"%X c #7F8487",
"&X c #8B8784",
"*X c #999B9B",
"=X c #AA9381",
"-X c #BE9E82",
";X c #AAA9AA",
":X c #C79B85",
">X c #D39C82",
",X c #DC9D84",
"<X c #D89C89",
"1X c #E39786",
"2X c #E49B83",
"3X c #CCA382",
"4X c #CAA684",
"5X c #D4A583",
"6X c #DDA483",
"7X c #D4AB83",
"8X c #DCAB84",
"9X c #DAA58A",
"0X c #D5AD8A",
"qX c #DAAD8B",
"wX c #D9B188",
"eX c #DDB28B",
"rX c #D9A995",
"tX c #DDB492",
"yX c #E3A583",
"uX c #E9A483",
"iX c #E2AB84",
"pX c #E4A38A",
"aX c #E4AB8A",
"sX c #EAA888",
"dX c #EAAC8C",
"fX c #E3B085",
"gX c #E3B38D",
"hX c #EAB28D",
"jX c #E6A992",
"kX c #EAAB92",
"lX c #E5B492",
"zX c #EBB493",
"xX c #EBBA95",
"cX c #E6B799",
"vX c #EDB699",
"bX c #EDBA9B",
"nX c #F0BA9B",
"mX c #EEBCA2",
"MX c #F0BDA1",
"NX c #F4C39D",
"BX c #F2C2A3",
"VX c #F1CCAC",
"CX c #F3CCB4",
"ZX c #EEDCC5",
"AX c #F7E8D7",
/* pixels */
"0.Y n M N L v.A.U.Y.Y.Y.R.R.T.}.T.T.T.T.T.T.T.J.I.J.J.J.J.J.h.p.p.>.&.~ j r ; = ; i T G G G U ;XE R ",
"0.J n F H } k.U.^.Y.`.R.R.R.T.}.T.T.T.T.T.T.T.T.J.J.J.J.J.J.f.Z.p.,.&.+.~ h > 5 X ; P 9 m C I ;XE U ",
"E V n N H o.n.U.Y.Y.R.}.}.}.}.}.}.}.T.T.}.{.{.T.I.J.J.I.J.J.Z.f.p.p.&.&.+.l y 5 ; < %XT b m G *XU Y ",
"E m N Z X.v.U.U.Y.R.R.+X}.+X+X+X}.}.}.}.}.}.}.{.I.I.J.I.J.J.H.f.p.p.>.&.&.] k : 5 X 4 0 0 b P $XV I ",
"R M Z Z X.n.U.R.R.`.}.+X@X+X+X+X+X+X X X X}.{.{.I.I.L.J.J.J.H.p.p.p.,.>.&.[ z r 5 X O 2 8 c R &XG I ",
"H F F H v.n..X.XoX[.oX@X#X#X+X+X X X}.}.{.{.{.{.{.L.J.J.H.Z.J.h.p.p.p.,.&.{ ' h : . $ = 4 9 T 0.G I ",
"L N M L c.V.OXOX8XyXoX@X#X+XoX}.}.}.}.{.{.{.{.{.{.I.J.J.J.H.J.h.a.p.a.,.>.+.A k r . X * < 4 c m V I ",
"Y H Z K v.V.OXwXgXiX#X#X#X+X+X}.+X}.{.}.}.{.{.{.{.~.T.J.Z.Z.Z.Z.a.a.a.,.&.O.! k y % + $ * 3 9 b m V ",
"U H F L c./.XXwXeXiXyX6X@XoX+X@X#X X X X X|.{.{.{.I.{.L.J.h.H.Z.f.a.a.2.>.+.x s r O . o . $ 2 8 b b ",
"L H Z H v.(.0XeXgXfX@XoX[. X@X@XsXsXdXjXuX X2X2X X|.|.1XL.L.H.f.d.a.4.2.&.[ ! d , $ o 9 v B P $X*X*X",
"H H H L M.5XqXeXtXiX6X].'.[.,X9XsXvXmXVXMXkXpXdXkX1XkX1X!.Q.Z.d.d.a.d.2.&.[ ! j q 4   1 2 3 0 B %X$X",
"U F n o.3X0XeXqX0X].N.V.:X5X:X<XrXjXvXCXCXCXmXvXkXsXkX1XW.W.S.m.r.1.e.1.O.[ ] l y g o @ o @ = 4 i n ",
"L N H n.7XwXeX7X(.w.w.w.c.7.6.6.6.w.:XrXmXCXMXjX2X1X<XE.r.r.w.-XN.#...w.@.] ] x u 6 % $ . o = 4 c m ",
"H g K .X0X0X8XV.} 6.7.K S s r r a S w.E.9XbXdX X1XW.r.S m Z S D S K S D  .) / x u 6 > O @ . $ 4 p m ",
"H n X..X0X0X-X5.5.K ..w.r.n.b.n.m.:...r.>XlXpXQ.>Xm._ A s t : t , a n h u A ^ x s 6 2 & . . $ 4 p m ",
"H v X.4X0XeX6.K 6.M.>X'./.E.S.W.^././.E.>XzX[.S.m.:.| | | %.g.r.3. .x r : k ! l s 6 > & . . $ 4 p m ",
"H i X.3XwX7XB.V.rX].<XpX1XD.r.D.).G.].XX9XaX].4.$. .$.:.2.g.K.F.F.F.E.' r - k l h : O . . . @ 4 g m ",
"H b X.3X0X4X.XNXqX>X<Xr.^ _ Q %.C.P.^.].0XyXP.2.) O.$.t.D.d.D.g.g.q.S.]..., q k h > ; @ . . @ 3 0 m ",
"F g L .X0X0XtXtXpX/.M.B.K S d <Xg.D.[.5X5X,X_.g./ O.q.g.r.w.A A l Q  .r.r.A d l h 6 % . o o + 2 p C ",
"| g 5.4X0XtXNXcX5X .rXZX( e [ <XQ.Q.[.].5XpX_.K.#.[ t.t.rXM.D q j 7.j q.t.] z A k 6 % .     X 2 0 m ",
"~.D R XX0XtXNXcX9X>XE.<XN.e.g.'.!.,X^.].5XpX XL.%.( 1.g.1XN.t w _ :XD ~ m...' ' k 6 * X r q   2 0 m ",
"MXv.K 5XqXeXcXtXlXlX0X<X<X1X,X1X<X'.].8XqXdX2XL.q.( e.W.!.E.%.| r.w.( ~ $.=.] D k 7 : %.h.2.y * p m ",
"BXv.5..X0XlXlXlXzXvXcXzXkXkXkXjX,X,XyXaXkXkXuXL.*.^ %.t.E.!.W.g.1.%.[ $.;.;.| D h 5 l !.~ D.^ & 0 m ",
"xXN.6.XXqXgXlXgXlXvXvXvXvXkXjX9XpXaXaXzXjX,X X~.&.^ %.r.g.!.>XW.F.t.e.e.e.e.] ' Z : ( +.@.uX' @ 0 m ",
"VX/.6.4X0XgXgXlXqXkXzXzXaXdXpXsXaXhXzXlXpX[.2X{.&.Q #.d.g.D.W.Q.W.F.t.t.t.3. .D s : / 4.d.uX%.< 0 m ",
"iXC.} 5XqXlXlXlXlXzXkXdXaXsXsXsXdXzXlXaX6XuX2X X2.Q O.C.S.D.S.D.D.S.m.t.r.:. .' d , [ _.,.2XE.< c m ",
"sX].} 4XeXcXxXNXbXxXvXdXdXdXsXuXdXzXzX8X6XdXvXdX|.#.) g.D.D.D.g.D.F.F.b.t.;.| D d w a.[.&.@X-.% c C ",
"uXxX6.4X0XtXbXBXBXvXvXzXzXsXdXdXdXzXkX8XgXVXCXvXuX%.l p.K.K.K.D.D.W.D.S.3.:.] A a w p.2X&. XS * p b ",
"h.[.V.V.0XcXmXBXBXbXbXvXzXsXiXdXhXzXdXlXaXcXzX6X'.( j a.K.K.K.K.K.D.G.S.e.:.' l : Q !.sXd.W.; 1 9 c ",
"].H.>Xv.4XtXcXbXBXnXnXnXzXzXzXdXhXhXiXnX;./.6XF.~ ~ ) H.K.~.L.P.D.K.D.S.e.@.^ s u ) !.1Xg.^   < 4 0 ",
"aX].5XV.4X0XcXxXNXnXnXnXzXzXhXhXhXhXyX[.f.jX:X| d +.+.H.I.P.P.K.K.D.D.d.1. .x , l ) g.L.e.;   = 2 4 ",
"qXvXdX3XV.7XeXlXnXnXnXzXhXzXhXdXdXiXaXyX[.].W.%.#.+.4.G.~.I.Q.P.K.D.C.t.:.' k , l ) k.g.A   + $ $ = ",
"cXbXzX9XE.3XeXlXlXbXxXhXhXhXhX#X#X@XyXaXaX6X^.m.e.e.4.d.J.P._.).K.D.4.<.{ ! h h ~ m.;.4.a   . . . . ",
"bXbXbXjX(.5XqXlXlXxXNXxXhX#X#X#X@X[.[.6XaXiX].'.m.r.t.4.k.H.J.K.G.Z.3.:.] x h ! K.m.@.n.% . . . . X ",
"rXBXBXzX(..XeXgXgXNXhXhX#X#X#X#X[.[.[.yXyX X).[.W.m.t.4.4.C.Z.Z.Z.4.>.=.' l u @.'.t.;.k   . . . . + ",
"9.:X:XB.9.3X0XeXgXgXfXfX#X#X#X#X[.yXiXpX2X|.~.`.P.D.W.t.4.4.k.k.A.4.-. .' l k $.I.C.N.;   . . . . = ",
"9.W 0.z.z.:X0XeXeXgXfXfXfXfXfXfXaXaXsX_.!.|.~.H.d.d.D.F.S.b.3.3.4.<.-.{ ' k ' /.).R.X.  o . . . + 2 ",
"W 8.0.x.l.V.eXgXgXfXOXOXfXgXfXfXqX!.h.h.u.s.~.u.u.u.*.r.m.m.4.3.<.-.-.{ ! h h 7X6XN.>   . . . . * 4 ",
"8.E 0.z.x.B.0XeXeXwX8XOXfXoXU.C.g.q.rXjXZXpXrX].g.H.u.#.:.m.b.<.-.-.-.{ / y   7 9 =   o . . . . < 9 ",
"0.0.9.x.x.=X4XeXgX8XOXOXOX`.F.g.g.s.!.:XAXVXZXmX!.g.*.` | 2.A.<.-.-.-.{ / > # @ + o @ o o . . o 2 g ",
"0.0.x.x.z.l.4XwXeXwX.XwXOXOXoX).!.!.s.i.s.s.y.y.y.` *.%.=.k.U.<.=.-.=.{ x & @ @ @ @ @ o o o o & 7 b ",
"E W x.x.x.z.-XwXgXwXOXOXOXOXoX`.@XiXpX1X1X1X!.L.i.g.*.1.>.k.A.-.:.<.=.{ k @ & & @ @ @ o @ o @ = 9 b ",
"0.0.0.x.z.j.=X0XwXeXOXXXOXiX6XoXyX6XiXyX X X).Q.K.d.4.1.>.k.3.=.=.v.o.{ y # & # & @ @ @ @ @ & 3 p V ",
"E 0.x.x.z.l.l.4XeXOXXXXX8X8X8X6X8X6XoXoX X[.).).G.C.b.<.-.=.-.=.k.=.{ ' > & & & @ @ & * * = 1 9 m G ",
"0.0.0.x.z.x.z.V.8XOX8X.XOX8XfXiXiXiXoXoX`.Y.G.G.G.Z.k.3.:.-.{ @.=.=.{ h # # @ @ @ @ * 1 3 4 9 m G Y ",
"E E x.0.z.x.x.l..XwX8XXXXX8XeXfXaXiXoXoX).Y.A.G.G.A.k.k.3.=.{ =.=.{ ' 6 # & @ @ & # = 3 8 c b C I R ",
"0.0.0.&Xz.z.&Xx.M.4X0XOX8X8XeXgXfXiXyX[.[.).G.H.G.Z.k.b.n.=.{ @.{ ] h # & & @ & @ & 1 8 0 m C H Y 9.",
"E 0.0.x.x.z.l.&X=X.X.X7X7XwX0XfX6XiX6XyX`._.Y.G.Z.A.k.C.k.O.] ] ] z & @ & & & @ @ & 3 0 b C J U R W ",
"E E 0.x.0.x.l.&X=XgX.X.X4X7X0XwX7XOX8XyX@X X).G.C.k.k.k.:. .' ' z y & & & & & & & & 7 v M H U R W 8.",
"E 0.0.0.&X&X9.9.=XaX0X.X4X4X0X0X0X0X5XiX[.'.).G.C.b.b.w.o.} ' k e q & & & & @ & & * 9 g C J Y R 5.8."
};
