/* XPM */
static char *c9866a086dac4789b7d1f8721b06b157U5D1j2QTnMKCZOfw[] = {
/* columns rows colors chars-per-pixel */
"50 50 105 2 ",
"   c #020B16",
".  c #090B16",
"X  c #030D19",
"o  c #090E19",
"O  c #05111D",
"+  c #09101D",
"@  c #09191C",
"#  c #071621",
"$  c #091523",
"%  c #0A1B26",
"&  c #0D232D",
"*  c #102833",
"=  c #182C38",
"-  c #1A323B",
";  c #1C3740",
":  c #1E3B44",
">  c #21444D",
",  c #244B53",
"<  c #26575F",
"1  c #275961",
"2  c #295D65",
"3  c #2A6067",
"4  c #2E676E",
"5  c #2F6A71",
"6  c #306E74",
"7  c #327076",
"8  c #34757B",
"9  c #367A7F",
"0  c #367980",
"q  c #39868C",
"w  c #3A898D",
"e  c #3B8D92",
"r  c #3D9095",
"t  c #3D959A",
"y  c #34A9AD",
"u  c #3AACAF",
"i  c #3AADB0",
"p  c #409A9E",
"a  c #429EA2",
"s  c #42A1A4",
"d  c #49A3A7",
"f  c #44A5A8",
"g  c #4AA6A9",
"h  c #4DAAAE",
"j  c #40AFB2",
"k  c #4FAFB2",
"l  c #43B0B4",
"z  c #4EB1B4",
"x  c #44B6B9",
"c  c #49B6B9",
"v  c #4DB8BB",
"b  c #51B3B6",
"n  c #53B7BA",
"m  c #54BABC",
"M  c #5CBBBE",
"N  c #55BEC1",
"B  c #5BBEC1",
"V  c #63BEC1",
"C  c #54C3C5",
"Z  c #59C4C6",
"A  c #53C5C8",
"S  c #5AC6C8",
"D  c #65C4C6",
"F  c #6EC9CB",
"G  c #74C6C8",
"H  c #73C9CB",
"J  c #7DCACB",
"K  c #83CBCD",
"L  c #88CDCF",
"P  c #81CFD2",
"I  c #8DCFD1",
"U  c #8ED5D7",
"Y  c #93D2D4",
"T  c #9DD3D5",
"R  c #93D7D9",
"E  c #ADD7D9",
"W  c #ABDCDE",
"Q  c #B4DBDD",
"!  c #BADDDF",
"~  c #AFDFE0",
"^  c #B9DFE0",
"/  c #B4E1E2",
"(  c #BAE3E3",
")  c #BEE4E5",
"_  c #C1E2E4",
"`  c #CBE4E5",
"'  c #C7E8E9",
"]  c #C8E8E9",
"[  c #CBE9EA",
"{  c #CDE8E9",
"}  c #D5EAEB",
"|  c #D2EEEE",
" . c #DBEAEB",
".. c #D8EBEC",
"X. c #DDEBEC",
"o. c #DAF0F0",
"O. c #DFF1F2",
"+. c #E2F2F3",
"@. c #E7F5F6",
"#. c #EBF6F7",
"$. c #EDF7F8",
"%. c #F1FAFA",
"&. c #F6FBFB",
"*. c #FFFEFE",
"=. c white",
/* pixels */
"% % % % % % $ % % % % % @ % % @ % % % % + . .         .   + @ % % % % # % % $ % % % % % % % @ % % % ",
"% % @ % % @ % % @ % $ % % % % % $ . . % : 2 6 9 q q 9 6 2 : %   . % @ % % % % % % @ % % % % % % @ $ ",
"% % $ % $ % % @ % % % % % % % . O , q k Z Z C C C N C C Z Z b q , % . @ @ % % @ % % @ % @ % % % % % ",
"% @ % % % % % % % % @ % @ . $ 2 h Z C n n n n n n n n n n n n C Z h 3 % . % % % @ % % $ $ % % % % % ",
"% @ $ % @ % % % % % @ %   > g S n n n n n n n n n n n n n n n n n n Z f > . % % % % $ % $ @ $ @ % $ ",
"% $ % % % % $ % % % + O 7 C N n n n n n n n n n n n n n n n n n n n n N N 6 O o % % % % % % % % % % ",
"% % % % @ % % % % o & t Z n n n n n n n n n n n n n n n n n n n n n n n n S t & . % % % % % % % @ % ",
"% % % % % % % % o & d C n n n n n n n n n n n n n n n n n n n n n n n n n n C g * X % % % % % % % % ",
"% % % $ % % % @ % d C n n n n n n n n n n n n n n n n n n n n n n n n n n n n C g % @ % % % $ % % % ",
"% % % % % % % o r C n n n n n n n n n n n n n n n n n n n n n n n n n n n n n n Z w + % % % % % % % ",
"% % @ % % %   4 Z n n n n n n n m n n n n n n n n n n n n n n n n n n n n n n n m Z 4   % % % % % % ",
"% % % % % + - m n n n n n n n n n n n n n n m n n n n n n n n n n n n n n n n n c n Z : . $ % % % % ",
"% % % % $ o t C n n n n n n n n n n n n n n n n n n n n n n n n n n n n n n n n m n C t + $ % % % % ",
"% % % % . , Z n n n n n n n n n n n n n n n n n n n n n n n n n n n n n n n n n n n n Z , + % % % $ ",
"$ % % % + p C n n n n n n n n n n n n m n n n n n n n n n n n n n n n n n n n n n n n C t + % % % % ",
"% % $ . : D n n n n n n n n n n n n n n n n n n n n n n n n n n n n n n n n n n n n n n Z : X % $ % ",
"% % % . 9 A n n n n n n n n n n n n n n n n n n n n n n n n n n n n n n n n n n n n n n A 9 . % % % ",
"$ % % % k n n n n n m n n n n n n n n n n n n n n n n n n n n n n n n n n n n n n n n n n h % # % % ",
"% % + ; C b n n n n n n n n n n n n n n n n n n n n n n n n n n n n n n n n n n n n n n n C ; + % % ",
"% % o 2 Z n n n n n n n n n n c c c n n v B c B m n n n c N V c n n n n n n n n n n n n n S 2 . % % ",
"% @   8 C n n n n n n n n n n c E E c c G =.M o.( u n c K =.%.D V c n n n n n n n n n n n A 0 X % % ",
"% % X r C n n n n n n n n n n x [ +.l n Z Q z +.) H D i _ =.J R %.H n n n n n n n n n n n C e X % % ",
"% % O a m n m n n n n n n n n l ` +.l c G =.M } =.=.=.G &.=.{ $.=.#.V n n n n n n n n n n m s O % % ",
"% % $ g n n n n n n n n n n n l ` +.l c H =.M X.[ c =.L / @.y ~ $.j n n n n n n n n n n n n g $ $ % ",
"% % # z m n n n n n n n n n n u `  .y u F =.M X.) y =.U ~ #.y W #.i b n n n n n n n n n n n k % % % ",
"% % # f n n n n n n n n n n n x [ =.| ' P =.V O.=.} =.V ^ &.y T =.{ V n n n n n n n n n n N a $ % % ",
"% % + t N n n n n n n m n n n c K Q Q E D E B I Y ! U j K T c C W ^ N n n n n n n n n n n N a X % % ",
"% %   e C n n n n n n n n n n n c x x x c c n c c x x b x c n n x x b n n n n n n n n n N N w X % % ",
"% % X 6 A n n n n n n n n n n n n n n n n n n n n n n n b n n n n n n n n n n n n n n n b N 8 X % % ",
"% % o 1 A n n n n n n n n n n n n n n n n n n n n n n n n n n n n n n n n n n n n n n n N N 1 X % % ",
"% % % = m n n n n n n n n n n n n n n n n n n n n n n n n n n n n n n n n n n n n n n n c N ; % % % ",
"% % % O f m n n n n n n n n n n n n n n n n n n n n n n n n n n n n n n n n n n n n n n N a O % % % ",
"% % % X 4 N N n n n n n n n n n n n n n n n n n n n n n n n n n n n n n n n n n n n n n A 6   % % % ",
"% % % $ ; N v b n n n n n n b N n n n n n n n n n n n n n n n n n n n n n n n n n n n n N = $ % % % ",
"% % % % X q N b n n n n n n n n n n n n n n n n n n n n n n n n n n n n n n n n n n n A q X % % % % ",
"% % % % + ; N N n n n n n n n n n n n n n n n n n n n n n n n n n n n n n n n n n n n B ; o % % % % ",
"% % % % % X 0 A n n n n n n n n n n n n n n n n n n n n n n n n n n n n n n n n b z A 0 X % % % & $ ",
"% % % & % % & z n n n b n n n n n n n n n n n n n n n n n N n n n n n n n n n n N N N * % % % % % % ",
"% % % % % % + , B N b N n n n n n n n n n n n n n n n n n n n n n n n n n n n n b N , + $ & % % % % ",
"% % % % % % % X 6 B n n n n n n n n n n n n n n n n n n n n n n n n n n n n n n B 6 + % % % % % % & ",
"% % & % % % % % O 0 A n n n n n n n n n n n n n b b B b N b b N n n n n N b N N 0 $ % % % % % & % % ",
"% % % % % % % % % O 0 A n n n n n n n n n n n n N N b b b N b b n n n n b N N 0 O % % % % % % % % % ",
"& % % % % % % & % % $ 6 A m n n n n n n n n N n b b b N b N N b n n v n N N 5 O % % % & % % % % & % ",
"% % % & % % % % % % % X , k A n n n n n n n n n b N b N b b z N n b N N k , X $ % % % % % % & % % % ",
"% % % % % % % % & % % % o & 0 N N N v n b N n b b N b b z N k N n A N 0 & $ $ & & % % % % % % % % % ",
"& % & % % % & % % % % % % % X - 0 b N A n n n N B b b N N N N N b 0 ; X $ & % % % % % % & % % & % & ",
"% & % % % & % & % % & % % % % $ O & 2 0 h B A S S S B B N f 0 1 & X + % % % % & % % & % % % % % % % ",
"% % % % % % % % % % % % % % % % % % + X $ = > 1 2 2 1 , ; % $ + % % % % % % % % % % % % % & % % % % ",
"% % % % % % % % % % % % % % & % % % % % % % $ X $ X + $ $ % % & % % % % % & % % % % % % % % % % % % ",
"& % % % & % & % % % % & % % % % % % & % % % % % % % % % % % % % % % & % % % % % & % % % & % % % & % "
};
