<?xml version="1.0" encoding="utf-8"?>
<!-- Generator: Adobe Illustrator 26.2.1, SVG Export Plug-In . SVG Version: 6.00 Build 0)  -->
<!DOCTYPE svg PUBLIC "-//W3C//DTD SVG 1.1//EN" "http://www.w3.org/Graphics/SVG/1.1/DTD/svg11.dtd" [
	<!ENTITY ns_extend "http://ns.adobe.com/Extensibility/1.0/">
	<!ENTITY ns_ai "http://ns.adobe.com/AdobeIllustrator/10.0/">
	<!ENTITY ns_graphs "http://ns.adobe.com/Graphs/1.0/">
	<!ENTITY ns_vars "http://ns.adobe.com/Variables/1.0/">
	<!ENTITY ns_imrep "http://ns.adobe.com/ImageReplacement/1.0/">
	<!ENTITY ns_sfw "http://ns.adobe.com/SaveForWeb/1.0/">
	<!ENTITY ns_custom "http://ns.adobe.com/GenericCustomNamespace/1.0/">
	<!ENTITY ns_adobe_xpath "http://ns.adobe.com/XPath/1.0/">
]>
<svg version="1.1" id="Layer_1" xmlns:x="&ns_extend;" xmlns:i="&ns_ai;" xmlns:graph="&ns_graphs;"
	 xmlns="http://www.w3.org/2000/svg" xmlns:xlink="http://www.w3.org/1999/xlink" x="0px" y="0px" viewBox="0 0 94.1 62.6"
	 enable-background="new 0 0 94.1 62.6" xml:space="preserve">
<metadata>
	<sfw  xmlns="&ns_sfw;">
		<slices></slices>
		<sliceSourceBounds  bottomLeftOrigin="true" height="62.6" width="94.1" x="8130.9" y="-8209.3"></sliceSourceBounds>
	</sfw>
</metadata>
<g>
	<g>
		<polygon fill="#FFFFFF" points="39.1,0 26,0 0,26 0,36.6 26,36.6 26,49.6 39.1,49.6 39.1,26 13,26 		"/>
		<polygon fill="#FFFFFF" points="44.6,13 57.7,0 44.6,0 		"/>
		<polygon fill="#FFFFFF" points="70.7,13 70.7,0 57.7,0 57.7,13 44.6,26 44.6,39.1 57.7,39.1 57.7,26 		"/>
		<polygon fill="#FFFFFF" points="70.7,26 57.7,39.1 70.7,39.1 		"/>
	</g>
	<rect x="44.6" y="49.6" fill="#FFFFFF" width="1" height="12.9"/>
	<g>
		<path fill="#FFFFFF" d="M52.8,52.2l-0.7,5.5h2.1L54.1,59h-3.7l0.8-6.9H52.8z"/>
		<path fill="#FFFFFF" d="M61.3,52.9c0.6,0.6,1,1.4,1,2.4c0,1-0.3,2-1.1,2.8c-0.9,0.9-1.9,1.1-2.8,1.1c-0.9,0-1.8-0.2-2.6-1
			c-0.5-0.5-1-1.3-1-2.4c0-1.2,0.5-2.1,1.1-2.8c0.9-0.8,1.9-1,2.8-1C60.1,52,60.9,52.5,61.3,52.9z M57.1,54.1
			c-0.4,0.4-0.6,1-0.6,1.6c0,0.6,0.2,1.1,0.6,1.4c0.5,0.5,1,0.6,1.5,0.6c0.5,0,1-0.1,1.5-0.6c0.4-0.4,0.6-1,0.6-1.7
			c0-0.4-0.1-1-0.5-1.4c-0.5-0.4-1-0.5-1.4-0.5C58,53.5,57.5,53.7,57.1,54.1z"/>
		<path fill="#FFFFFF" d="M63,59l0.9-6.9h1.4l3.2,4.5l0.6-4.5h1.6L69.7,59h-1.4l-3.2-4.5L64.6,59H63z"/>
		<path fill="#FFFFFF" d="M74.1,52.2c0.7,0,1.9,0.1,2.6,0.9c0.5,0.5,0.8,1.2,0.8,2.3c0,1.6-0.7,2.4-1.1,2.8
			c-0.8,0.8-1.9,0.9-3.1,0.9h-2.1l0.8-6.9H74.1z M73,57.7h0.5c0.5,0,1.2,0,1.7-0.5c0.4-0.3,0.7-1,0.7-1.8c0-0.6-0.2-1.1-0.5-1.4
			c-0.3-0.3-0.9-0.5-1.4-0.5h-0.5L73,57.7z"/>
		<path fill="#FFFFFF" d="M84.9,52.9c0.6,0.6,1,1.4,1,2.4c0,1-0.3,2-1.1,2.8c-0.9,0.9-1.9,1.1-2.8,1.1c-0.9,0-1.8-0.2-2.6-1
			c-0.5-0.5-1-1.3-1-2.4c0-1.2,0.5-2.1,1.1-2.8c0.9-0.8,1.9-1,2.8-1C83.6,52,84.4,52.5,84.9,52.9z M80.6,54.1
			c-0.4,0.4-0.6,1-0.6,1.6c0,0.6,0.2,1.1,0.6,1.4c0.5,0.5,1,0.6,1.5,0.6c0.5,0,1-0.1,1.5-0.6c0.4-0.4,0.6-1,0.6-1.7
			c0-0.4-0.1-1-0.5-1.4c-0.5-0.4-1-0.5-1.4-0.5C81.6,53.5,81,53.7,80.6,54.1z"/>
		<path fill="#FFFFFF" d="M86.6,59l0.9-6.9h1.4l3.2,4.5l0.6-4.5h1.6L93.3,59h-1.4l-3.2-4.5L88.2,59H86.6z"/>
	</g>
</g>
</svg>
